<svg width="671" height="480" viewBox="0 0 671 480" fill="none" xmlns="http://www.w3.org/2000/svg">
<g filter="url(#filter0_d)">
<rect x="35.8384" y="17" width="600" height="410" rx="30" fill="white"/>
</g>
<rect x="105.838" y="119" width="66" height="52" fill="white"/>
<rect x="171.838" y="119" width="66" height="52" fill="white"/>
<path d="M204.955 149H203.865V141.775L201.68 142.578V141.594L204.785 140.428H204.955V149Z" fill="#172755"/>
<rect x="237.838" y="119" width="66" height="52" fill="white"/>
<path d="M272.982 149H267.393V148.221L270.346 144.939C270.783 144.443 271.084 144.041 271.248 143.732C271.416 143.42 271.5 143.098 271.5 142.766C271.5 142.32 271.365 141.955 271.096 141.67C270.826 141.385 270.467 141.242 270.018 141.242C269.479 141.242 269.059 141.396 268.758 141.705C268.461 142.01 268.312 142.436 268.312 142.982H267.229C267.229 142.197 267.48 141.562 267.984 141.078C268.492 140.594 269.17 140.352 270.018 140.352C270.811 140.352 271.438 140.561 271.898 140.979C272.359 141.393 272.59 141.945 272.59 142.637C272.59 143.477 272.055 144.477 270.984 145.637L268.699 148.115H272.982V149Z" fill="#172755"/>
<rect x="303.838" y="119" width="66" height="52" fill="white"/>
<path d="M334.969 144.207H335.783C336.295 144.199 336.697 144.064 336.99 143.803C337.283 143.541 337.43 143.188 337.43 142.742C337.43 141.742 336.932 141.242 335.936 141.242C335.467 141.242 335.092 141.377 334.811 141.646C334.533 141.912 334.395 142.266 334.395 142.707H333.311C333.311 142.031 333.557 141.471 334.049 141.025C334.545 140.576 335.174 140.352 335.936 140.352C336.74 140.352 337.371 140.564 337.828 140.99C338.285 141.416 338.514 142.008 338.514 142.766C338.514 143.137 338.393 143.496 338.15 143.844C337.912 144.191 337.586 144.451 337.172 144.623C337.641 144.771 338.002 145.018 338.256 145.361C338.514 145.705 338.643 146.125 338.643 146.621C338.643 147.387 338.393 147.994 337.893 148.443C337.393 148.893 336.742 149.117 335.941 149.117C335.141 149.117 334.488 148.9 333.984 148.467C333.484 148.033 333.234 147.461 333.234 146.75H334.324C334.324 147.199 334.471 147.559 334.764 147.828C335.057 148.098 335.449 148.232 335.941 148.232C336.465 148.232 336.865 148.096 337.143 147.822C337.42 147.549 337.559 147.156 337.559 146.645C337.559 146.148 337.406 145.768 337.102 145.502C336.797 145.236 336.357 145.1 335.783 145.092H334.969V144.207Z" fill="#172755"/>
<rect x="369.838" y="119" width="66" height="52" fill="white"/>
<path d="M403.969 146.135H405.152V147.02H403.969V149H402.879V147.02H398.994V146.381L402.814 140.469H403.969V146.135ZM400.225 146.135H402.879V141.951L402.75 142.186L400.225 146.135Z" fill="#172755"/>
<rect x="435.838" y="119" width="66" height="52" fill="white"/>
<path d="M465.891 144.723L466.324 140.469H470.695V141.471H467.244L466.986 143.797C467.404 143.551 467.879 143.428 468.41 143.428C469.188 143.428 469.805 143.686 470.262 144.201C470.719 144.713 470.947 145.406 470.947 146.281C470.947 147.16 470.709 147.854 470.232 148.361C469.76 148.865 469.098 149.117 468.246 149.117C467.492 149.117 466.877 148.908 466.4 148.49C465.924 148.072 465.652 147.494 465.586 146.756H466.611C466.678 147.244 466.852 147.613 467.133 147.863C467.414 148.109 467.785 148.232 468.246 148.232C468.75 148.232 469.145 148.061 469.43 147.717C469.719 147.373 469.863 146.898 469.863 146.293C469.863 145.723 469.707 145.266 469.395 144.922C469.086 144.574 468.674 144.4 468.158 144.4C467.686 144.4 467.314 144.504 467.045 144.711L466.758 144.945L465.891 144.723Z" fill="#172755"/>
<rect x="501.838" y="119" width="66" height="52" fill="white"/>
<path d="M535.646 140.463V141.383H535.447C534.604 141.398 533.932 141.648 533.432 142.133C532.932 142.617 532.643 143.299 532.564 144.178C533.014 143.662 533.627 143.404 534.404 143.404C535.146 143.404 535.738 143.666 536.18 144.189C536.625 144.713 536.848 145.389 536.848 146.217C536.848 147.096 536.607 147.799 536.127 148.326C535.65 148.854 535.01 149.117 534.205 149.117C533.389 149.117 532.727 148.805 532.219 148.18C531.711 147.551 531.457 146.742 531.457 145.754V145.338C531.457 143.768 531.791 142.568 532.459 141.74C533.131 140.908 534.129 140.482 535.453 140.463H535.646ZM534.223 144.307C533.852 144.307 533.51 144.418 533.197 144.641C532.885 144.863 532.668 145.143 532.547 145.479V145.877C532.547 146.58 532.705 147.146 533.021 147.576C533.338 148.006 533.732 148.221 534.205 148.221C534.693 148.221 535.076 148.041 535.354 147.682C535.635 147.322 535.775 146.852 535.775 146.27C535.775 145.684 535.633 145.211 535.348 144.852C535.066 144.488 534.691 144.307 534.223 144.307Z" fill="#172755"/>
<rect x="105.838" y="171" width="66" height="52" fill="white"/>
<path d="M140.9 193.078L137.367 201H136.23L139.752 193.359H135.135V192.469H140.9V193.078Z" fill="#172755"/>
<rect x="171.838" y="171" width="66" height="52" fill="white"/>
<circle cx="204.338" cy="196.5" r="19.5" fill="#0088F0"/>
<path d="M206.566 194.695C206.566 195.121 206.453 195.5 206.227 195.832C206.004 196.164 205.701 196.424 205.318 196.611C205.764 196.803 206.115 197.082 206.373 197.449C206.635 197.816 206.766 198.232 206.766 198.697C206.766 199.436 206.516 200.023 206.016 200.461C205.52 200.898 204.865 201.117 204.053 201.117C203.232 201.117 202.574 200.898 202.078 200.461C201.586 200.02 201.34 199.432 201.34 198.697C201.34 198.236 201.465 197.82 201.715 197.449C201.969 197.078 202.318 196.797 202.764 196.605C202.385 196.418 202.086 196.158 201.867 195.826C201.648 195.494 201.539 195.117 201.539 194.695C201.539 193.977 201.77 193.406 202.23 192.984C202.691 192.562 203.299 192.352 204.053 192.352C204.803 192.352 205.408 192.562 205.869 192.984C206.334 193.406 206.566 193.977 206.566 194.695ZM205.682 198.674C205.682 198.197 205.529 197.809 205.225 197.508C204.924 197.207 204.529 197.057 204.041 197.057C203.553 197.057 203.16 197.205 202.863 197.502C202.57 197.799 202.424 198.189 202.424 198.674C202.424 199.158 202.566 199.539 202.852 199.816C203.141 200.094 203.541 200.232 204.053 200.232C204.561 200.232 204.959 200.094 205.248 199.816C205.537 199.535 205.682 199.154 205.682 198.674ZM204.053 193.242C203.627 193.242 203.281 193.375 203.016 193.641C202.754 193.902 202.623 194.26 202.623 194.713C202.623 195.146 202.752 195.498 203.01 195.768C203.271 196.033 203.619 196.166 204.053 196.166C204.486 196.166 204.832 196.033 205.09 195.768C205.352 195.498 205.482 195.146 205.482 194.713C205.482 194.279 205.348 193.926 205.078 193.652C204.809 193.379 204.467 193.242 204.053 193.242Z" fill="#EEEEF7"/>
<rect x="237.838" y="171" width="66" height="52" fill="white"/>
<circle cx="270.338" cy="196.5" r="19.5" fill="#0088F0"/>
<path d="M271.547 197.25C271.32 197.52 271.049 197.736 270.732 197.9C270.42 198.064 270.076 198.146 269.701 198.146C269.209 198.146 268.779 198.025 268.412 197.783C268.049 197.541 267.768 197.201 267.568 196.764C267.369 196.322 267.27 195.836 267.27 195.305C267.27 194.734 267.377 194.221 267.592 193.764C267.811 193.307 268.119 192.957 268.518 192.715C268.916 192.473 269.381 192.352 269.912 192.352C270.756 192.352 271.42 192.668 271.904 193.301C272.393 193.93 272.637 194.789 272.637 195.879V196.195C272.637 197.855 272.309 199.068 271.652 199.834C270.996 200.596 270.006 200.986 268.682 201.006H268.471V200.092H268.699C269.594 200.076 270.281 199.844 270.762 199.395C271.242 198.941 271.504 198.227 271.547 197.25ZM269.877 197.25C270.24 197.25 270.574 197.139 270.879 196.916C271.188 196.693 271.412 196.418 271.553 196.09V195.656C271.553 194.945 271.398 194.367 271.09 193.922C270.781 193.477 270.391 193.254 269.918 193.254C269.441 193.254 269.059 193.438 268.77 193.805C268.48 194.168 268.336 194.648 268.336 195.246C268.336 195.828 268.475 196.309 268.752 196.688C269.033 197.062 269.408 197.25 269.877 197.25Z" fill="#EEEEF7"/>
<rect x="303.838" y="171" width="66" height="52" fill="white"/>
<circle cx="336.338" cy="196.5" r="19.5" fill="#0088F0"/>
<path d="M333.086 201H331.996V193.775L329.811 194.578V193.594L332.916 192.428H333.086V201ZM341.611 197.361C341.611 198.631 341.395 199.574 340.961 200.191C340.527 200.809 339.85 201.117 338.928 201.117C338.018 201.117 337.344 200.816 336.906 200.215C336.469 199.609 336.242 198.707 336.227 197.508V196.061C336.227 194.807 336.443 193.875 336.877 193.266C337.311 192.656 337.99 192.352 338.916 192.352C339.834 192.352 340.51 192.646 340.943 193.236C341.377 193.822 341.6 194.729 341.611 195.955V197.361ZM340.527 195.879C340.527 194.961 340.398 194.293 340.141 193.875C339.883 193.453 339.475 193.242 338.916 193.242C338.361 193.242 337.957 193.451 337.703 193.869C337.449 194.287 337.318 194.93 337.311 195.797V197.531C337.311 198.453 337.443 199.135 337.709 199.576C337.979 200.014 338.385 200.232 338.928 200.232C339.463 200.232 339.859 200.025 340.117 199.611C340.379 199.197 340.516 198.545 340.527 197.654V195.879Z" fill="#EEEEF7"/>
<rect x="369.838" y="171" width="66" height="52" fill="white"/>
<path d="M399.086 201H397.996V193.775L395.811 194.578V193.594L398.916 192.428H399.086V201ZM405.824 201H404.734V193.775L402.549 194.578V193.594L405.654 192.428H405.824V201Z" fill="#172755"/>
<rect x="435.838" y="171" width="66" height="52" fill="white"/>
<path d="M465.086 201H463.996V193.775L461.811 194.578V193.594L464.916 192.428H465.086V201ZM473.852 201H468.262V200.221L471.215 196.939C471.652 196.443 471.953 196.041 472.117 195.732C472.285 195.42 472.369 195.098 472.369 194.766C472.369 194.32 472.234 193.955 471.965 193.67C471.695 193.385 471.336 193.242 470.887 193.242C470.348 193.242 469.928 193.396 469.627 193.705C469.33 194.01 469.182 194.436 469.182 194.982H468.098C468.098 194.197 468.35 193.562 468.854 193.078C469.361 192.594 470.039 192.352 470.887 192.352C471.68 192.352 472.307 192.561 472.768 192.979C473.229 193.393 473.459 193.945 473.459 194.637C473.459 195.477 472.924 196.477 471.854 197.637L469.568 200.115H473.852V201Z" fill="#172755"/>
<rect x="501.838" y="171" width="66" height="52" fill="white"/>
<path d="M531.086 201H529.996V193.775L527.811 194.578V193.594L530.916 192.428H531.086V201ZM535.838 196.207H536.652C537.164 196.199 537.566 196.064 537.859 195.803C538.152 195.541 538.299 195.188 538.299 194.742C538.299 193.742 537.801 193.242 536.805 193.242C536.336 193.242 535.961 193.377 535.68 193.646C535.402 193.912 535.264 194.266 535.264 194.707H534.18C534.18 194.031 534.426 193.471 534.918 193.025C535.414 192.576 536.043 192.352 536.805 192.352C537.609 192.352 538.24 192.564 538.697 192.99C539.154 193.416 539.383 194.008 539.383 194.766C539.383 195.137 539.262 195.496 539.02 195.844C538.781 196.191 538.455 196.451 538.041 196.623C538.51 196.771 538.871 197.018 539.125 197.361C539.383 197.705 539.512 198.125 539.512 198.621C539.512 199.387 539.262 199.994 538.762 200.443C538.262 200.893 537.611 201.117 536.811 201.117C536.01 201.117 535.357 200.9 534.854 200.467C534.354 200.033 534.104 199.461 534.104 198.75H535.193C535.193 199.199 535.34 199.559 535.633 199.828C535.926 200.098 536.318 200.232 536.811 200.232C537.334 200.232 537.734 200.096 538.012 199.822C538.289 199.549 538.428 199.156 538.428 198.645C538.428 198.148 538.275 197.768 537.971 197.502C537.666 197.236 537.227 197.1 536.652 197.092H535.838V196.207Z" fill="#172755"/>
<rect x="105.838" y="223" width="66" height="52" fill="white"/>
<path d="M135.086 253H133.996V245.775L131.811 246.578V245.594L134.916 244.428H135.086V253ZM142.838 250.135H144.021V251.02H142.838V253H141.748V251.02H137.863V250.381L141.684 244.469H142.838V250.135ZM139.094 250.135H141.748V245.951L141.619 246.186L139.094 250.135Z" fill="#172755"/>
<rect x="171.838" y="223" width="66" height="52" fill="white"/>
<path d="M201.086 253H199.996V245.775L197.811 246.578V245.594L200.916 244.428H201.086V253ZM204.76 248.723L205.193 244.469H209.564V245.471H206.113L205.855 247.797C206.273 247.551 206.748 247.428 207.279 247.428C208.057 247.428 208.674 247.686 209.131 248.201C209.588 248.713 209.816 249.406 209.816 250.281C209.816 251.16 209.578 251.854 209.102 252.361C208.629 252.865 207.967 253.117 207.115 253.117C206.361 253.117 205.746 252.908 205.27 252.49C204.793 252.072 204.521 251.494 204.455 250.756H205.48C205.547 251.244 205.721 251.613 206.002 251.863C206.283 252.109 206.654 252.232 207.115 252.232C207.619 252.232 208.014 252.061 208.299 251.717C208.588 251.373 208.732 250.898 208.732 250.293C208.732 249.723 208.576 249.266 208.264 248.922C207.955 248.574 207.543 248.4 207.027 248.4C206.555 248.4 206.184 248.504 205.914 248.711L205.627 248.945L204.76 248.723Z" fill="#172755"/>
<rect x="237.838" y="223" width="66" height="52" fill="white"/>
<path d="M267.086 253H265.996V245.775L263.811 246.578V245.594L266.916 244.428H267.086V253ZM274.516 244.463V245.383H274.316C273.473 245.398 272.801 245.648 272.301 246.133C271.801 246.617 271.512 247.299 271.434 248.178C271.883 247.662 272.496 247.404 273.273 247.404C274.016 247.404 274.607 247.666 275.049 248.189C275.494 248.713 275.717 249.389 275.717 250.217C275.717 251.096 275.477 251.799 274.996 252.326C274.52 252.854 273.879 253.117 273.074 253.117C272.258 253.117 271.596 252.805 271.088 252.18C270.58 251.551 270.326 250.742 270.326 249.754V249.338C270.326 247.768 270.66 246.568 271.328 245.74C272 244.908 272.998 244.482 274.322 244.463H274.516ZM273.092 248.307C272.721 248.307 272.379 248.418 272.066 248.641C271.754 248.863 271.537 249.143 271.416 249.479V249.877C271.416 250.58 271.574 251.146 271.891 251.576C272.207 252.006 272.602 252.221 273.074 252.221C273.562 252.221 273.945 252.041 274.223 251.682C274.504 251.322 274.645 250.852 274.645 250.27C274.645 249.684 274.502 249.211 274.217 248.852C273.936 248.488 273.561 248.307 273.092 248.307Z" fill="#172755"/>
<rect x="303.838" y="223" width="66" height="52" fill="white"/>
<path d="M333.086 253H331.996V245.775L329.811 246.578V245.594L332.916 244.428H333.086V253ZM341.77 245.078L338.236 253H337.1L340.621 245.359H336.004V244.469H341.77V245.078Z" fill="#172755"/>
<rect x="369.838" y="223" width="66" height="52" fill="white"/>
<circle cx="402.338" cy="248.5" r="19.5" fill="#EF2A82"/>
<path d="M399.086 253H397.996V245.775L395.811 246.578V245.594L398.916 244.428H399.086V253ZM407.436 246.695C407.436 247.121 407.322 247.5 407.096 247.832C406.873 248.164 406.57 248.424 406.188 248.611C406.633 248.803 406.984 249.082 407.242 249.449C407.504 249.816 407.635 250.232 407.635 250.697C407.635 251.436 407.385 252.023 406.885 252.461C406.389 252.898 405.734 253.117 404.922 253.117C404.102 253.117 403.443 252.898 402.947 252.461C402.455 252.02 402.209 251.432 402.209 250.697C402.209 250.236 402.334 249.82 402.584 249.449C402.838 249.078 403.188 248.797 403.633 248.605C403.254 248.418 402.955 248.158 402.736 247.826C402.518 247.494 402.408 247.117 402.408 246.695C402.408 245.977 402.639 245.406 403.1 244.984C403.561 244.562 404.168 244.352 404.922 244.352C405.672 244.352 406.277 244.562 406.738 244.984C407.203 245.406 407.436 245.977 407.436 246.695ZM406.551 250.674C406.551 250.197 406.398 249.809 406.094 249.508C405.793 249.207 405.398 249.057 404.91 249.057C404.422 249.057 404.029 249.205 403.732 249.502C403.439 249.799 403.293 250.189 403.293 250.674C403.293 251.158 403.436 251.539 403.721 251.816C404.01 252.094 404.41 252.232 404.922 252.232C405.43 252.232 405.828 252.094 406.117 251.816C406.406 251.535 406.551 251.154 406.551 250.674ZM404.922 245.242C404.496 245.242 404.15 245.375 403.885 245.641C403.623 245.902 403.492 246.26 403.492 246.713C403.492 247.146 403.621 247.498 403.879 247.768C404.141 248.033 404.488 248.166 404.922 248.166C405.355 248.166 405.701 248.033 405.959 247.768C406.221 247.498 406.352 247.146 406.352 246.713C406.352 246.279 406.217 245.926 405.947 245.652C405.678 245.379 405.336 245.242 404.922 245.242Z" fill="#EEEEF7"/>
<rect x="435.838" y="223" width="66" height="52" fill="white"/>
<path d="M465.086 253H463.996V245.775L461.811 246.578V245.594L464.916 244.428H465.086V253ZM472.416 249.25C472.189 249.52 471.918 249.736 471.602 249.9C471.289 250.064 470.945 250.146 470.57 250.146C470.078 250.146 469.648 250.025 469.281 249.783C468.918 249.541 468.637 249.201 468.438 248.764C468.238 248.322 468.139 247.836 468.139 247.305C468.139 246.734 468.246 246.221 468.461 245.764C468.68 245.307 468.988 244.957 469.387 244.715C469.785 244.473 470.25 244.352 470.781 244.352C471.625 244.352 472.289 244.668 472.773 245.301C473.262 245.93 473.506 246.789 473.506 247.879V248.195C473.506 249.855 473.178 251.068 472.521 251.834C471.865 252.596 470.875 252.986 469.551 253.006H469.34V252.092H469.568C470.463 252.076 471.15 251.844 471.631 251.395C472.111 250.941 472.373 250.227 472.416 249.25ZM470.746 249.25C471.109 249.25 471.443 249.139 471.748 248.916C472.057 248.693 472.281 248.418 472.422 248.09V247.656C472.422 246.945 472.268 246.367 471.959 245.922C471.65 245.477 471.26 245.254 470.787 245.254C470.311 245.254 469.928 245.438 469.639 245.805C469.35 246.168 469.205 246.648 469.205 247.246C469.205 247.828 469.344 248.309 469.621 248.688C469.902 249.062 470.277 249.25 470.746 249.25Z" fill="#172755"/>
<rect x="501.838" y="223" width="66" height="52" fill="white"/>
<path d="M533.113 253H527.523V252.221L530.477 248.939C530.914 248.443 531.215 248.041 531.379 247.732C531.547 247.42 531.631 247.098 531.631 246.766C531.631 246.32 531.496 245.955 531.227 245.67C530.957 245.385 530.598 245.242 530.148 245.242C529.609 245.242 529.189 245.396 528.889 245.705C528.592 246.01 528.443 246.436 528.443 246.982H527.359C527.359 246.197 527.611 245.562 528.115 245.078C528.623 244.594 529.301 244.352 530.148 244.352C530.941 244.352 531.568 244.561 532.029 244.979C532.49 245.393 532.721 245.945 532.721 246.637C532.721 247.477 532.186 248.477 531.115 249.637L528.83 252.115H533.113V253ZM539.611 249.361C539.611 250.631 539.395 251.574 538.961 252.191C538.527 252.809 537.85 253.117 536.928 253.117C536.018 253.117 535.344 252.816 534.906 252.215C534.469 251.609 534.242 250.707 534.227 249.508V248.061C534.227 246.807 534.443 245.875 534.877 245.266C535.311 244.656 535.99 244.352 536.916 244.352C537.834 244.352 538.51 244.646 538.943 245.236C539.377 245.822 539.6 246.729 539.611 247.955V249.361ZM538.527 247.879C538.527 246.961 538.398 246.293 538.141 245.875C537.883 245.453 537.475 245.242 536.916 245.242C536.361 245.242 535.957 245.451 535.703 245.869C535.449 246.287 535.318 246.93 535.311 247.797V249.531C535.311 250.453 535.443 251.135 535.709 251.576C535.979 252.014 536.385 252.232 536.928 252.232C537.463 252.232 537.859 252.025 538.117 251.611C538.379 251.197 538.516 250.545 538.527 249.654V247.879Z" fill="#172755"/>
<rect x="105.838" y="275" width="66" height="52" fill="white"/>
<path d="M137.113 305H131.523V304.221L134.477 300.939C134.914 300.443 135.215 300.041 135.379 299.732C135.547 299.42 135.631 299.098 135.631 298.766C135.631 298.32 135.496 297.955 135.227 297.67C134.957 297.385 134.598 297.242 134.148 297.242C133.609 297.242 133.189 297.396 132.889 297.705C132.592 298.01 132.443 298.436 132.443 298.982H131.359C131.359 298.197 131.611 297.562 132.115 297.078C132.623 296.594 133.301 296.352 134.148 296.352C134.941 296.352 135.568 296.561 136.029 296.979C136.49 297.393 136.721 297.945 136.721 298.637C136.721 299.477 136.186 300.477 135.115 301.637L132.83 304.115H137.113V305ZM141.824 305H140.734V297.775L138.549 298.578V297.594L141.654 296.428H141.824V305Z" fill="#172755"/>
<rect x="171.838" y="275" width="66" height="52" fill="white"/>
<path d="M203.113 305H197.523V304.221L200.477 300.939C200.914 300.443 201.215 300.041 201.379 299.732C201.547 299.42 201.631 299.098 201.631 298.766C201.631 298.32 201.496 297.955 201.227 297.67C200.957 297.385 200.598 297.242 200.148 297.242C199.609 297.242 199.189 297.396 198.889 297.705C198.592 298.01 198.443 298.436 198.443 298.982H197.359C197.359 298.197 197.611 297.562 198.115 297.078C198.623 296.594 199.301 296.352 200.148 296.352C200.941 296.352 201.568 296.561 202.029 296.979C202.49 297.393 202.721 297.945 202.721 298.637C202.721 299.477 202.186 300.477 201.115 301.637L198.83 304.115H203.113V305ZM209.852 305H204.262V304.221L207.215 300.939C207.652 300.443 207.953 300.041 208.117 299.732C208.285 299.42 208.369 299.098 208.369 298.766C208.369 298.32 208.234 297.955 207.965 297.67C207.695 297.385 207.336 297.242 206.887 297.242C206.348 297.242 205.928 297.396 205.627 297.705C205.33 298.01 205.182 298.436 205.182 298.982H204.098C204.098 298.197 204.35 297.562 204.854 297.078C205.361 296.594 206.039 296.352 206.887 296.352C207.68 296.352 208.307 296.561 208.768 296.979C209.229 297.393 209.459 297.945 209.459 298.637C209.459 299.477 208.924 300.477 207.854 301.637L205.568 304.115H209.852V305Z" fill="#172755"/>
<rect x="237.838" y="275" width="66" height="52" fill="white"/>
<path d="M269.113 305H263.523V304.221L266.477 300.939C266.914 300.443 267.215 300.041 267.379 299.732C267.547 299.42 267.631 299.098 267.631 298.766C267.631 298.32 267.496 297.955 267.227 297.67C266.957 297.385 266.598 297.242 266.148 297.242C265.609 297.242 265.189 297.396 264.889 297.705C264.592 298.01 264.443 298.436 264.443 298.982H263.359C263.359 298.197 263.611 297.562 264.115 297.078C264.623 296.594 265.301 296.352 266.148 296.352C266.941 296.352 267.568 296.561 268.029 296.979C268.49 297.393 268.721 297.945 268.721 298.637C268.721 299.477 268.186 300.477 267.115 301.637L264.83 304.115H269.113V305ZM271.838 300.207H272.652C273.164 300.199 273.566 300.064 273.859 299.803C274.152 299.541 274.299 299.188 274.299 298.742C274.299 297.742 273.801 297.242 272.805 297.242C272.336 297.242 271.961 297.377 271.68 297.646C271.402 297.912 271.264 298.266 271.264 298.707H270.18C270.18 298.031 270.426 297.471 270.918 297.025C271.414 296.576 272.043 296.352 272.805 296.352C273.609 296.352 274.24 296.564 274.697 296.99C275.154 297.416 275.383 298.008 275.383 298.766C275.383 299.137 275.262 299.496 275.02 299.844C274.781 300.191 274.455 300.451 274.041 300.623C274.51 300.771 274.871 301.018 275.125 301.361C275.383 301.705 275.512 302.125 275.512 302.621C275.512 303.387 275.262 303.994 274.762 304.443C274.262 304.893 273.611 305.117 272.811 305.117C272.01 305.117 271.357 304.9 270.854 304.467C270.354 304.033 270.104 303.461 270.104 302.75H271.193C271.193 303.199 271.34 303.559 271.633 303.828C271.926 304.098 272.318 304.232 272.811 304.232C273.334 304.232 273.734 304.096 274.012 303.822C274.289 303.549 274.428 303.156 274.428 302.645C274.428 302.148 274.275 301.768 273.971 301.502C273.666 301.236 273.227 301.1 272.652 301.092H271.838V300.207Z" fill="#172755"/>
<rect x="303.838" y="275" width="66" height="52" fill="white"/>
<path d="M335.113 305H329.523V304.221L332.477 300.939C332.914 300.443 333.215 300.041 333.379 299.732C333.547 299.42 333.631 299.098 333.631 298.766C333.631 298.32 333.496 297.955 333.227 297.67C332.957 297.385 332.598 297.242 332.148 297.242C331.609 297.242 331.189 297.396 330.889 297.705C330.592 298.01 330.443 298.436 330.443 298.982H329.359C329.359 298.197 329.611 297.562 330.115 297.078C330.623 296.594 331.301 296.352 332.148 296.352C332.941 296.352 333.568 296.561 334.029 296.979C334.49 297.393 334.721 297.945 334.721 298.637C334.721 299.477 334.186 300.477 333.115 301.637L330.83 304.115H335.113V305ZM340.838 302.135H342.021V303.02H340.838V305H339.748V303.02H335.863V302.381L339.684 296.469H340.838V302.135ZM337.094 302.135H339.748V297.951L339.619 298.186L337.094 302.135Z" fill="#172755"/>
<rect x="369.838" y="275" width="66" height="52" fill="white"/>
<path d="M401.113 305H395.523V304.221L398.477 300.939C398.914 300.443 399.215 300.041 399.379 299.732C399.547 299.42 399.631 299.098 399.631 298.766C399.631 298.32 399.496 297.955 399.227 297.67C398.957 297.385 398.598 297.242 398.148 297.242C397.609 297.242 397.189 297.396 396.889 297.705C396.592 298.01 396.443 298.436 396.443 298.982H395.359C395.359 298.197 395.611 297.562 396.115 297.078C396.623 296.594 397.301 296.352 398.148 296.352C398.941 296.352 399.568 296.561 400.029 296.979C400.49 297.393 400.721 297.945 400.721 298.637C400.721 299.477 400.186 300.477 399.115 301.637L396.83 304.115H401.113V305ZM402.76 300.723L403.193 296.469H407.564V297.471H404.113L403.855 299.797C404.273 299.551 404.748 299.428 405.279 299.428C406.057 299.428 406.674 299.686 407.131 300.201C407.588 300.713 407.816 301.406 407.816 302.281C407.816 303.16 407.578 303.854 407.102 304.361C406.629 304.865 405.967 305.117 405.115 305.117C404.361 305.117 403.746 304.908 403.27 304.49C402.793 304.072 402.521 303.494 402.455 302.756H403.48C403.547 303.244 403.721 303.613 404.002 303.863C404.283 304.109 404.654 304.232 405.115 304.232C405.619 304.232 406.014 304.061 406.299 303.717C406.588 303.373 406.732 302.898 406.732 302.293C406.732 301.723 406.576 301.266 406.264 300.922C405.955 300.574 405.543 300.4 405.027 300.4C404.555 300.4 404.184 300.504 403.914 300.711L403.627 300.945L402.76 300.723Z" fill="#172755"/>
<rect x="435.838" y="275" width="66" height="52" fill="white"/>
<path d="M467.113 305H461.523V304.221L464.477 300.939C464.914 300.443 465.215 300.041 465.379 299.732C465.547 299.42 465.631 299.098 465.631 298.766C465.631 298.32 465.496 297.955 465.227 297.67C464.957 297.385 464.598 297.242 464.148 297.242C463.609 297.242 463.189 297.396 462.889 297.705C462.592 298.01 462.443 298.436 462.443 298.982H461.359C461.359 298.197 461.611 297.562 462.115 297.078C462.623 296.594 463.301 296.352 464.148 296.352C464.941 296.352 465.568 296.561 466.029 296.979C466.49 297.393 466.721 297.945 466.721 298.637C466.721 299.477 466.186 300.477 465.115 301.637L462.83 304.115H467.113V305ZM472.516 296.463V297.383H472.316C471.473 297.398 470.801 297.648 470.301 298.133C469.801 298.617 469.512 299.299 469.434 300.178C469.883 299.662 470.496 299.404 471.273 299.404C472.016 299.404 472.607 299.666 473.049 300.189C473.494 300.713 473.717 301.389 473.717 302.217C473.717 303.096 473.477 303.799 472.996 304.326C472.52 304.854 471.879 305.117 471.074 305.117C470.258 305.117 469.596 304.805 469.088 304.18C468.58 303.551 468.326 302.742 468.326 301.754V301.338C468.326 299.768 468.66 298.568 469.328 297.74C470 296.908 470.998 296.482 472.322 296.463H472.516ZM471.092 300.307C470.721 300.307 470.379 300.418 470.066 300.641C469.754 300.863 469.537 301.143 469.416 301.479V301.877C469.416 302.58 469.574 303.146 469.891 303.576C470.207 304.006 470.602 304.221 471.074 304.221C471.562 304.221 471.945 304.041 472.223 303.682C472.504 303.322 472.645 302.852 472.645 302.27C472.645 301.684 472.502 301.211 472.217 300.852C471.936 300.488 471.561 300.307 471.092 300.307Z" fill="#172755"/>
<rect x="501.838" y="275" width="66" height="52" fill="white"/>
<path d="M533.113 305H527.523V304.221L530.477 300.939C530.914 300.443 531.215 300.041 531.379 299.732C531.547 299.42 531.631 299.098 531.631 298.766C531.631 298.32 531.496 297.955 531.227 297.67C530.957 297.385 530.598 297.242 530.148 297.242C529.609 297.242 529.189 297.396 528.889 297.705C528.592 298.01 528.443 298.436 528.443 298.982H527.359C527.359 298.197 527.611 297.562 528.115 297.078C528.623 296.594 529.301 296.352 530.148 296.352C530.941 296.352 531.568 296.561 532.029 296.979C532.49 297.393 532.721 297.945 532.721 298.637C532.721 299.477 532.186 300.477 531.115 301.637L528.83 304.115H533.113V305ZM539.77 297.078L536.236 305H535.1L538.621 297.359H534.004V296.469H539.77V297.078Z" fill="#172755"/>
<rect x="105.838" y="327" width="66" height="52" fill="white"/>
<path d="M137.113 357H131.523V356.221L134.477 352.939C134.914 352.443 135.215 352.041 135.379 351.732C135.547 351.42 135.631 351.098 135.631 350.766C135.631 350.32 135.496 349.955 135.227 349.67C134.957 349.385 134.598 349.242 134.148 349.242C133.609 349.242 133.189 349.396 132.889 349.705C132.592 350.01 132.443 350.436 132.443 350.982H131.359C131.359 350.197 131.611 349.562 132.115 349.078C132.623 348.594 133.301 348.352 134.148 348.352C134.941 348.352 135.568 348.561 136.029 348.979C136.49 349.393 136.721 349.945 136.721 350.637C136.721 351.477 136.186 352.477 135.115 353.637L132.83 356.115H137.113V357ZM143.436 350.695C143.436 351.121 143.322 351.5 143.096 351.832C142.873 352.164 142.57 352.424 142.188 352.611C142.633 352.803 142.984 353.082 143.242 353.449C143.504 353.816 143.635 354.232 143.635 354.697C143.635 355.436 143.385 356.023 142.885 356.461C142.389 356.898 141.734 357.117 140.922 357.117C140.102 357.117 139.443 356.898 138.947 356.461C138.455 356.02 138.209 355.432 138.209 354.697C138.209 354.236 138.334 353.82 138.584 353.449C138.838 353.078 139.188 352.797 139.633 352.605C139.254 352.418 138.955 352.158 138.736 351.826C138.518 351.494 138.408 351.117 138.408 350.695C138.408 349.977 138.639 349.406 139.1 348.984C139.561 348.562 140.168 348.352 140.922 348.352C141.672 348.352 142.277 348.562 142.738 348.984C143.203 349.406 143.436 349.977 143.436 350.695ZM142.551 354.674C142.551 354.197 142.398 353.809 142.094 353.508C141.793 353.207 141.398 353.057 140.91 353.057C140.422 353.057 140.029 353.205 139.732 353.502C139.439 353.799 139.293 354.189 139.293 354.674C139.293 355.158 139.436 355.539 139.721 355.816C140.01 356.094 140.41 356.232 140.922 356.232C141.43 356.232 141.828 356.094 142.117 355.816C142.406 355.535 142.551 355.154 142.551 354.674ZM140.922 349.242C140.496 349.242 140.15 349.375 139.885 349.641C139.623 349.902 139.492 350.26 139.492 350.713C139.492 351.146 139.621 351.498 139.879 351.768C140.141 352.033 140.488 352.166 140.922 352.166C141.355 352.166 141.701 352.033 141.959 351.768C142.221 351.498 142.352 351.146 142.352 350.713C142.352 350.279 142.217 349.926 141.947 349.652C141.678 349.379 141.336 349.242 140.922 349.242Z" fill="#172755"/>
<rect x="171.838" y="327" width="66" height="52" fill="white"/>
<path d="M203.113 357H197.523V356.221L200.477 352.939C200.914 352.443 201.215 352.041 201.379 351.732C201.547 351.42 201.631 351.098 201.631 350.766C201.631 350.32 201.496 349.955 201.227 349.67C200.957 349.385 200.598 349.242 200.148 349.242C199.609 349.242 199.189 349.396 198.889 349.705C198.592 350.01 198.443 350.436 198.443 350.982H197.359C197.359 350.197 197.611 349.562 198.115 349.078C198.623 348.594 199.301 348.352 200.148 348.352C200.941 348.352 201.568 348.561 202.029 348.979C202.49 349.393 202.721 349.945 202.721 350.637C202.721 351.477 202.186 352.477 201.115 353.637L198.83 356.115H203.113V357ZM208.416 353.25C208.189 353.52 207.918 353.736 207.602 353.9C207.289 354.064 206.945 354.146 206.57 354.146C206.078 354.146 205.648 354.025 205.281 353.783C204.918 353.541 204.637 353.201 204.438 352.764C204.238 352.322 204.139 351.836 204.139 351.305C204.139 350.734 204.246 350.221 204.461 349.764C204.68 349.307 204.988 348.957 205.387 348.715C205.785 348.473 206.25 348.352 206.781 348.352C207.625 348.352 208.289 348.668 208.773 349.301C209.262 349.93 209.506 350.789 209.506 351.879V352.195C209.506 353.855 209.178 355.068 208.521 355.834C207.865 356.596 206.875 356.986 205.551 357.006H205.34V356.092H205.568C206.463 356.076 207.15 355.844 207.631 355.395C208.111 354.941 208.373 354.227 208.416 353.25ZM206.746 353.25C207.109 353.25 207.443 353.139 207.748 352.916C208.057 352.693 208.281 352.418 208.422 352.09V351.656C208.422 350.945 208.268 350.367 207.959 349.922C207.65 349.477 207.26 349.254 206.787 349.254C206.311 349.254 205.928 349.438 205.639 349.805C205.35 350.168 205.205 350.648 205.205 351.246C205.205 351.828 205.344 352.309 205.621 352.688C205.902 353.062 206.277 353.25 206.746 353.25Z" fill="#172755"/>
<rect x="237.838" y="327" width="66" height="52" fill="white"/>
<path d="M265.1 352.207H265.914C266.426 352.199 266.828 352.064 267.121 351.803C267.414 351.541 267.561 351.188 267.561 350.742C267.561 349.742 267.062 349.242 266.066 349.242C265.598 349.242 265.223 349.377 264.941 349.646C264.664 349.912 264.525 350.266 264.525 350.707H263.441C263.441 350.031 263.688 349.471 264.18 349.025C264.676 348.576 265.305 348.352 266.066 348.352C266.871 348.352 267.502 348.564 267.959 348.99C268.416 349.416 268.645 350.008 268.645 350.766C268.645 351.137 268.523 351.496 268.281 351.844C268.043 352.191 267.717 352.451 267.303 352.623C267.771 352.771 268.133 353.018 268.387 353.361C268.645 353.705 268.773 354.125 268.773 354.621C268.773 355.387 268.523 355.994 268.023 356.443C267.523 356.893 266.873 357.117 266.072 357.117C265.271 357.117 264.619 356.9 264.115 356.467C263.615 356.033 263.365 355.461 263.365 354.75H264.455C264.455 355.199 264.602 355.559 264.895 355.828C265.188 356.098 265.58 356.232 266.072 356.232C266.596 356.232 266.996 356.096 267.273 355.822C267.551 355.549 267.689 355.156 267.689 354.645C267.689 354.148 267.537 353.768 267.232 353.502C266.928 353.236 266.488 353.1 265.914 353.092H265.1V352.207ZM275.611 353.361C275.611 354.631 275.395 355.574 274.961 356.191C274.527 356.809 273.85 357.117 272.928 357.117C272.018 357.117 271.344 356.816 270.906 356.215C270.469 355.609 270.242 354.707 270.227 353.508V352.061C270.227 350.807 270.443 349.875 270.877 349.266C271.311 348.656 271.99 348.352 272.916 348.352C273.834 348.352 274.51 348.646 274.943 349.236C275.377 349.822 275.6 350.729 275.611 351.955V353.361ZM274.527 351.879C274.527 350.961 274.398 350.293 274.141 349.875C273.883 349.453 273.475 349.242 272.916 349.242C272.361 349.242 271.957 349.451 271.703 349.869C271.449 350.287 271.318 350.93 271.311 351.797V353.531C271.311 354.453 271.443 355.135 271.709 355.576C271.979 356.014 272.385 356.232 272.928 356.232C273.463 356.232 273.859 356.025 274.117 355.611C274.379 355.197 274.516 354.545 274.527 353.654V351.879Z" fill="#172755"/>
<rect x="303.838" y="327" width="66" height="52" fill="white"/>
<path d="M331.1 352.207H331.914C332.426 352.199 332.828 352.064 333.121 351.803C333.414 351.541 333.561 351.188 333.561 350.742C333.561 349.742 333.062 349.242 332.066 349.242C331.598 349.242 331.223 349.377 330.941 349.646C330.664 349.912 330.525 350.266 330.525 350.707H329.441C329.441 350.031 329.688 349.471 330.18 349.025C330.676 348.576 331.305 348.352 332.066 348.352C332.871 348.352 333.502 348.564 333.959 348.99C334.416 349.416 334.645 350.008 334.645 350.766C334.645 351.137 334.523 351.496 334.281 351.844C334.043 352.191 333.717 352.451 333.303 352.623C333.771 352.771 334.133 353.018 334.387 353.361C334.645 353.705 334.773 354.125 334.773 354.621C334.773 355.387 334.523 355.994 334.023 356.443C333.523 356.893 332.873 357.117 332.072 357.117C331.271 357.117 330.619 356.9 330.115 356.467C329.615 356.033 329.365 355.461 329.365 354.75H330.455C330.455 355.199 330.602 355.559 330.895 355.828C331.188 356.098 331.58 356.232 332.072 356.232C332.596 356.232 332.996 356.096 333.273 355.822C333.551 355.549 333.689 355.156 333.689 354.645C333.689 354.148 333.537 353.768 333.232 353.502C332.928 353.236 332.488 353.1 331.914 353.092H331.1V352.207ZM339.824 357H338.734V349.775L336.549 350.578V349.594L339.654 348.428H339.824V357Z" fill="#172755"/>
<rect x="369.838" y="327" width="66" height="52" fill="white"/>
<rect x="435.838" y="327" width="66" height="52" fill="white"/>
<rect x="501.838" y="327" width="66" height="52" fill="white"/>
<path d="M125.641 78.4688L128.43 85.4297L131.219 78.4688H132.678V87H131.553V83.6777L131.659 80.0918L128.858 87H127.997L125.202 80.1094L125.313 83.6777V87H124.188V78.4688H125.641ZM141.227 83.0098C141.227 83.8457 141.086 84.5762 140.805 85.2012C140.524 85.8223 140.125 86.2969 139.61 86.625C139.094 86.9531 138.493 87.1172 137.805 87.1172C137.133 87.1172 136.538 86.9531 136.018 86.625C135.499 86.293 135.094 85.8223 134.805 85.2129C134.52 84.5996 134.374 83.8906 134.366 83.0859V82.4707C134.366 81.6504 134.508 80.9258 134.793 80.2969C135.079 79.668 135.481 79.1875 136 78.8555C136.524 78.5195 137.122 78.3516 137.793 78.3516C138.477 78.3516 139.079 78.5176 139.598 78.8496C140.122 79.1777 140.524 79.6562 140.805 80.2852C141.086 80.9102 141.227 81.6387 141.227 82.4707V83.0098ZM140.108 82.459C140.108 81.4473 139.905 80.6719 139.499 80.1328C139.092 79.5898 138.524 79.3184 137.793 79.3184C137.083 79.3184 136.522 79.5898 136.112 80.1328C135.706 80.6719 135.497 81.4219 135.485 82.3828V83.0098C135.485 83.9902 135.69 84.7617 136.1 85.3242C136.514 85.8828 137.083 86.1621 137.805 86.1621C138.532 86.1621 139.094 85.8984 139.493 85.3711C139.891 84.8398 140.096 84.0801 140.108 83.0918V82.459ZM149.471 87H148.34L144.045 80.4258V87H142.915V78.4688H144.045L148.352 85.0723V78.4688H149.471V87Z" fill="#8794BA"/>
<path d="M198.842 79.3945H196.1V87H194.981V79.3945H192.245V78.4688H198.842V79.3945ZM206.114 78.4688V84.2695C206.11 85.0742 205.856 85.7324 205.352 86.2441C204.852 86.7559 204.172 87.043 203.313 87.1055L203.014 87.1172C202.081 87.1172 201.336 86.8652 200.782 86.3613C200.227 85.8574 199.946 85.1641 199.938 84.2812V78.4688H201.051V84.2461C201.051 84.8633 201.221 85.3438 201.561 85.6875C201.901 86.0273 202.385 86.1973 203.014 86.1973C203.651 86.1973 204.137 86.0273 204.473 85.6875C204.813 85.3477 204.983 84.8691 204.983 84.252V78.4688H206.114ZM212.711 83.0566H209.014V86.0801H213.309V87H207.889V78.4688H213.25V79.3945H209.014V82.1367H212.711V83.0566Z" fill="#8794BA"/>
<path d="M258.995 84.3105L259.159 85.4355L259.399 84.4219L261.086 78.4688H262.036L263.682 84.4219L263.917 85.4531L264.098 84.3047L265.422 78.4688H266.553L264.485 87H263.459L261.702 80.7832L261.567 80.1328L261.432 80.7832L259.61 87H258.584L256.522 78.4688H257.647L258.995 84.3105ZM272.629 83.0566H268.932V86.0801H273.227V87H267.807V78.4688H273.168V79.3945H268.932V82.1367H272.629V83.0566ZM274.627 87V78.4688H277.036C277.778 78.4688 278.434 78.6328 279.004 78.9609C279.575 79.2891 280.014 79.7559 280.323 80.3613C280.635 80.9668 280.793 81.6621 280.797 82.4473V82.9922C280.797 83.7969 280.641 84.502 280.329 85.1074C280.02 85.7129 279.577 86.1777 278.999 86.502C278.424 86.8262 277.754 86.9922 276.989 87H274.627ZM275.752 79.3945V86.0801H276.936C277.803 86.0801 278.477 85.8105 278.958 85.2715C279.442 84.7324 279.684 83.9648 279.684 82.9688V82.4707C279.684 81.502 279.456 80.75 278.999 80.2148C278.545 79.6758 277.901 79.4023 277.065 79.3945H275.752Z" fill="#8794BA"/>
<path d="M329.975 79.3945H327.233V87H326.114V79.3945H323.377V78.4688H329.975V79.3945ZM337.797 87H336.667V83.0566H332.366V87H331.241V78.4688H332.366V82.1367H336.667V78.4688H337.797V87ZM345.801 78.4688V84.2695C345.797 85.0742 345.543 85.7324 345.04 86.2441C344.54 86.7559 343.86 87.043 343 87.1055L342.702 87.1172C341.768 87.1172 341.024 86.8652 340.469 86.3613C339.915 85.8574 339.633 85.1641 339.625 84.2812V78.4688H340.739V84.2461C340.739 84.8633 340.909 85.3438 341.249 85.6875C341.588 86.0273 342.073 86.1973 342.702 86.1973C343.338 86.1973 343.825 86.0273 344.161 85.6875C344.5 85.3477 344.67 84.8691 344.67 84.252V78.4688H345.801Z" fill="#8794BA"/>
<path d="M397.885 83.2324H394.305V87H393.18V78.4688H398.465V79.3945H394.305V82.3125H397.885V83.2324ZM402.942 83.5488H400.938V87H399.807V78.4688H402.631C403.592 78.4688 404.331 78.6875 404.846 79.125C405.366 79.5625 405.625 80.1992 405.625 81.0352C405.625 81.5664 405.481 82.0293 405.192 82.4238C404.907 82.8184 404.508 83.1133 403.997 83.3086L406 86.9297V87H404.793L402.942 83.5488ZM400.938 82.6289H402.667C403.225 82.6289 403.668 82.4844 403.997 82.1953C404.329 81.9062 404.495 81.5195 404.495 81.0352C404.495 80.5078 404.336 80.1035 404.02 79.8223C403.708 79.541 403.254 79.3984 402.661 79.3945H400.938V82.6289ZM408.415 87H407.29V78.4688H408.415V87Z" fill="#8794BA"/>
<path d="M459.667 83.1973C458.702 82.9199 457.999 82.5801 457.557 82.1777C457.12 81.7715 456.901 81.2715 456.901 80.6777C456.901 80.0059 457.168 79.4512 457.704 79.0137C458.243 78.5723 458.942 78.3516 459.801 78.3516C460.387 78.3516 460.909 78.4648 461.366 78.6914C461.827 78.918 462.182 79.2305 462.432 79.6289C462.686 80.0273 462.813 80.4629 462.813 80.9355H461.682C461.682 80.4199 461.518 80.0156 461.19 79.7227C460.862 79.4258 460.399 79.2773 459.801 79.2773C459.247 79.2773 458.813 79.4004 458.5 79.6465C458.192 79.8887 458.038 80.2266 458.038 80.6602C458.038 81.0078 458.184 81.3027 458.477 81.5449C458.774 81.7832 459.276 82.002 459.983 82.2012C460.694 82.4004 461.249 82.6211 461.647 82.8633C462.049 83.1016 462.346 83.3809 462.538 83.7012C462.733 84.0215 462.831 84.3984 462.831 84.832C462.831 85.5234 462.561 86.0781 462.022 86.4961C461.483 86.9102 460.762 87.1172 459.86 87.1172C459.274 87.1172 458.727 87.0059 458.219 86.7832C457.711 86.5566 457.319 86.248 457.042 85.8574C456.768 85.4668 456.631 85.0234 456.631 84.5273H457.762C457.762 85.043 457.952 85.4512 458.331 85.752C458.713 86.0488 459.223 86.1973 459.86 86.1973C460.454 86.1973 460.909 86.0762 461.225 85.834C461.542 85.5918 461.7 85.2617 461.7 84.8438C461.7 84.4258 461.553 84.1035 461.26 83.877C460.967 83.6465 460.436 83.4199 459.667 83.1973ZM468.989 84.7734H465.415L464.612 87H463.452L466.709 78.4688H467.694L470.958 87H469.803L468.989 84.7734ZM465.754 83.8477H468.655L467.202 79.8574L465.754 83.8477ZM477.239 79.3945H474.497V87H473.377V79.3945H470.641V78.4688H477.239V79.3945Z" fill="#8794BA"/>
<path d="M524.612 83.1973C523.647 82.9199 522.944 82.5801 522.502 82.1777C522.065 81.7715 521.846 81.2715 521.846 80.6777C521.846 80.0059 522.114 79.4512 522.649 79.0137C523.188 78.5723 523.887 78.3516 524.747 78.3516C525.333 78.3516 525.854 78.4648 526.311 78.6914C526.772 78.918 527.127 79.2305 527.377 79.6289C527.631 80.0273 527.758 80.4629 527.758 80.9355H526.627C526.627 80.4199 526.463 80.0156 526.135 79.7227C525.807 79.4258 525.344 79.2773 524.747 79.2773C524.192 79.2773 523.758 79.4004 523.446 79.6465C523.137 79.8887 522.983 80.2266 522.983 80.6602C522.983 81.0078 523.129 81.3027 523.422 81.5449C523.719 81.7832 524.221 82.002 524.928 82.2012C525.639 82.4004 526.194 82.6211 526.592 82.8633C526.995 83.1016 527.292 83.3809 527.483 83.7012C527.678 84.0215 527.776 84.3984 527.776 84.832C527.776 85.5234 527.506 86.0781 526.967 86.4961C526.428 86.9102 525.708 87.1172 524.805 87.1172C524.219 87.1172 523.672 87.0059 523.165 86.7832C522.657 86.5566 522.264 86.248 521.987 85.8574C521.713 85.4668 521.577 85.0234 521.577 84.5273H522.708C522.708 85.043 522.897 85.4512 523.276 85.752C523.659 86.0488 524.168 86.1973 524.805 86.1973C525.399 86.1973 525.854 86.0762 526.17 85.834C526.487 85.5918 526.645 85.2617 526.645 84.8438C526.645 84.4258 526.499 84.1035 526.206 83.877C525.913 83.6465 525.381 83.4199 524.612 83.1973ZM535.229 78.4688V84.2695C535.225 85.0742 534.971 85.7324 534.467 86.2441C533.967 86.7559 533.288 87.043 532.428 87.1055L532.129 87.1172C531.196 87.1172 530.452 86.8652 529.897 86.3613C529.342 85.8574 529.061 85.1641 529.053 84.2812V78.4688H530.167V84.2461C530.167 84.8633 530.336 85.3438 530.676 85.6875C531.016 86.0273 531.5 86.1973 532.129 86.1973C532.766 86.1973 533.252 86.0273 533.588 85.6875C533.928 85.3477 534.098 84.8691 534.098 84.252V78.4688H535.229ZM543.561 87H542.43L538.135 80.4258V87H537.004V78.4688H538.135L542.442 85.0723V78.4688H543.561V87Z" fill="#8794BA"/>
<defs>
<filter id="filter0_d" x="0.838379" y="0" width="670" height="480" filterUnits="userSpaceOnUse" color-interpolation-filters="sRGB">
<feFlood flood-opacity="0" result="BackgroundImageFix"/>
<feColorMatrix in="SourceAlpha" type="matrix" values="0 0 0 0 0 0 0 0 0 0 0 0 0 0 0 0 0 0 127 0" result="hardAlpha"/>
<feMorphology radius="15" operator="erode" in="SourceAlpha" result="effect1_dropShadow"/>
<feOffset dy="18"/>
<feGaussianBlur stdDeviation="25"/>
<feColorMatrix type="matrix" values="0 0 0 0 0.0996452 0 0 0 0 0.164326 0 0 0 0 0.350284 0 0 0 0.2 0"/>
<feBlend mode="normal" in2="BackgroundImageFix" result="effect1_dropShadow"/>
<feBlend mode="normal" in="SourceGraphic" in2="effect1_dropShadow" result="shape"/>
</filter>
</defs>
</svg>
