<svg width="671" height="480" viewBox="0 0 671 480" fill="none" xmlns="http://www.w3.org/2000/svg">
<g filter="url(#filter0_d)">
<rect x="35.6853" y="17" width="600" height="410" rx="30" fill="white"/>
</g>
<path d="M118.13 66.1036L171.256 38.1302L224.383 66.1036V121.896L171.256 149.87L118.13 121.896V66.1036Z" stroke="#EEEEF7" stroke-width="2"/>
<path d="M136.249 75.3528L170.756 57.1309L205.263 75.3528V111.647L170.756 129.869L136.249 111.647V75.3528Z" stroke="#EEEEF7" stroke-width="2"/>
<path d="M198.099 187.015L256.049 139.292L337.765 171.394L343.616 269.403L256.031 321.468L191.762 254.278L198.099 187.015Z" stroke="#0088F0" stroke-width="4"/>
<path d="M212.343 89.9287L252.315 175.709L181.004 216.798L110.063 242.2L115.213 167.208L133.436 115.852L212.343 89.9287Z" stroke="#EF2A82" stroke-width="4"/>
<path d="M231.571 206.077L255.685 192.155L279.8 206.077V233.923L255.685 247.845L231.571 233.923V206.077Z" stroke="#EEEEF7" stroke-width="2"/>
<path d="M496.194 153.252H498.87C500.551 153.226 501.873 152.783 502.836 151.923C503.799 151.063 504.28 149.902 504.28 148.439C504.28 145.153 502.643 143.51 499.371 143.51C497.83 143.51 496.598 143.953 495.674 144.838C494.763 145.711 494.307 146.873 494.307 148.323H490.746C490.746 146.103 491.554 144.261 493.171 142.798C494.801 141.322 496.868 140.584 499.371 140.584C502.015 140.584 504.087 141.283 505.589 142.682C507.091 144.081 507.842 146.026 507.842 148.516C507.842 149.735 507.444 150.916 506.648 152.058C505.865 153.2 504.793 154.054 503.433 154.619C504.973 155.106 506.16 155.915 506.994 157.044C507.842 158.174 508.265 159.554 508.265 161.184C508.265 163.699 507.444 165.695 505.801 167.171C504.158 168.647 502.021 169.385 499.39 169.385C496.759 169.385 494.615 168.673 492.96 167.248C491.317 165.823 490.495 163.943 490.495 161.607H494.076C494.076 163.083 494.557 164.264 495.52 165.149C496.483 166.035 497.773 166.478 499.39 166.478C501.11 166.478 502.425 166.029 503.336 165.13C504.248 164.232 504.703 162.942 504.703 161.261C504.703 159.631 504.203 158.379 503.202 157.506C502.201 156.634 500.757 156.184 498.87 156.159H496.194V153.252ZM528.191 159.586H532.08V162.493H528.191V169H524.61V162.493H511.846V160.394L524.398 140.969H528.191V159.586ZM515.889 159.586H524.61V145.84L524.187 146.61L515.889 159.586ZM534.987 146.359C534.987 144.678 535.52 143.292 536.585 142.201C537.663 141.11 539.043 140.564 540.724 140.564C542.431 140.564 543.811 141.116 544.864 142.22C545.929 143.311 546.461 144.729 546.461 146.475V147.842C546.461 149.536 545.922 150.922 544.844 152C543.779 153.066 542.419 153.598 540.763 153.598C539.094 153.598 537.715 153.066 536.624 152C535.533 150.922 534.987 149.491 534.987 147.707V146.359ZM537.644 147.842C537.644 148.843 537.926 149.671 538.491 150.325C539.056 150.967 539.813 151.288 540.763 151.288C541.674 151.288 542.406 150.973 542.958 150.345C543.522 149.716 543.805 148.856 543.805 147.765V146.359C543.805 145.358 543.529 144.53 542.977 143.876C542.425 143.221 541.674 142.894 540.724 142.894C539.775 142.894 539.024 143.221 538.472 143.876C537.92 144.53 537.644 145.384 537.644 146.436V147.842ZM548.637 162.127C548.637 160.446 549.17 159.066 550.235 157.988C551.313 156.897 552.693 156.351 554.374 156.351C556.056 156.351 557.435 156.89 558.513 157.968C559.592 159.047 560.131 160.478 560.131 162.262V163.629C560.131 165.31 559.592 166.696 558.513 167.787C557.448 168.865 556.081 169.404 554.413 169.404C552.744 169.404 551.364 168.872 550.273 167.806C549.182 166.728 548.637 165.297 548.637 163.513V162.127ZM551.294 163.629C551.294 164.643 551.576 165.477 552.141 166.131C552.706 166.773 553.463 167.094 554.413 167.094C555.337 167.094 556.075 166.78 556.627 166.151C557.179 165.509 557.455 164.643 557.455 163.552V162.127C557.455 161.113 557.172 160.285 556.607 159.643C556.056 159.002 555.311 158.681 554.374 158.681C553.463 158.681 552.718 159.002 552.141 159.643C551.576 160.272 551.294 161.126 551.294 162.204V163.629ZM541.571 166.882L539.55 165.612L553.238 143.703L555.26 144.973L541.571 166.882Z" fill="#EF2A82"/>
<path d="M489.485 195.157C489.485 194.226 489.667 193.388 490.03 192.643C490.399 191.899 490.909 191.325 491.56 190.921C492.216 190.517 492.963 190.314 493.801 190.314C495.096 190.314 496.142 190.763 496.938 191.659C497.741 192.556 498.143 193.748 498.143 195.236V195.351C498.143 196.276 497.964 197.108 497.606 197.847C497.255 198.579 496.748 199.15 496.086 199.56C495.43 199.971 494.674 200.176 493.818 200.176C492.529 200.176 491.483 199.727 490.681 198.831C489.884 197.935 489.485 196.748 489.485 195.271V195.157ZM491.12 195.351C491.12 196.405 491.363 197.252 491.85 197.891C492.342 198.529 492.998 198.849 493.818 198.849C494.645 198.849 495.301 198.526 495.787 197.882C496.273 197.231 496.517 196.323 496.517 195.157C496.517 194.114 496.268 193.27 495.77 192.626C495.277 191.976 494.621 191.65 493.801 191.65C492.998 191.65 492.351 191.97 491.858 192.608C491.366 193.247 491.12 194.161 491.12 195.351ZM508.215 195.351C508.215 196.798 507.884 197.964 507.222 198.849C506.56 199.733 505.663 200.176 504.532 200.176C503.378 200.176 502.47 199.81 501.808 199.077V203.656H500.182V190.49H501.667L501.746 191.545C502.408 190.725 503.328 190.314 504.506 190.314C505.648 190.314 506.551 190.745 507.213 191.606C507.881 192.468 508.215 193.666 508.215 195.201V195.351ZM506.589 195.166C506.589 194.094 506.36 193.247 505.903 192.626C505.446 192.005 504.819 191.694 504.022 191.694C503.038 191.694 502.3 192.131 501.808 193.004V197.548C502.294 198.415 503.038 198.849 504.04 198.849C504.819 198.849 505.438 198.541 505.895 197.926C506.357 197.305 506.589 196.385 506.589 195.166ZM512.495 188.187V190.49H514.271V191.747H512.495V197.644C512.495 198.025 512.574 198.312 512.732 198.506C512.891 198.693 513.16 198.787 513.541 198.787C513.729 198.787 513.986 198.752 514.314 198.682V200C513.887 200.117 513.471 200.176 513.066 200.176C512.34 200.176 511.792 199.956 511.423 199.517C511.054 199.077 510.869 198.453 510.869 197.644V191.747H509.138V190.49H510.869V188.187H512.495ZM517.944 200H516.318V190.49H517.944V200ZM516.187 187.968C516.187 187.704 516.266 187.481 516.424 187.3C516.588 187.118 516.828 187.027 517.145 187.027C517.461 187.027 517.701 187.118 517.865 187.3C518.029 187.481 518.111 187.704 518.111 187.968C518.111 188.231 518.029 188.451 517.865 188.627C517.701 188.803 517.461 188.891 517.145 188.891C516.828 188.891 516.588 188.803 516.424 188.627C516.266 188.451 516.187 188.231 516.187 187.968ZM520.124 195.157C520.124 194.226 520.306 193.388 520.669 192.643C521.038 191.899 521.548 191.325 522.198 190.921C522.854 190.517 523.602 190.314 524.439 190.314C525.734 190.314 526.78 190.763 527.577 191.659C528.38 192.556 528.781 193.748 528.781 195.236V195.351C528.781 196.276 528.603 197.108 528.245 197.847C527.894 198.579 527.387 199.15 526.725 199.56C526.068 199.971 525.312 200.176 524.457 200.176C523.168 200.176 522.122 199.727 521.319 198.831C520.522 197.935 520.124 196.748 520.124 195.271V195.157ZM521.759 195.351C521.759 196.405 522.002 197.252 522.488 197.891C522.98 198.529 523.637 198.849 524.457 198.849C525.283 198.849 525.939 198.526 526.426 197.882C526.912 197.231 527.155 196.323 527.155 195.157C527.155 194.114 526.906 193.27 526.408 192.626C525.916 191.976 525.26 191.65 524.439 191.65C523.637 191.65 522.989 191.97 522.497 192.608C522.005 193.247 521.759 194.161 521.759 195.351ZM532.358 190.49L532.411 191.685C533.138 190.771 534.087 190.314 535.259 190.314C537.269 190.314 538.282 191.448 538.3 193.716V200H536.674V193.707C536.668 193.021 536.51 192.515 536.199 192.186C535.895 191.858 535.417 191.694 534.767 191.694C534.239 191.694 533.776 191.835 533.378 192.116C532.979 192.397 532.669 192.767 532.446 193.224V200H530.82V190.49H532.358ZM550.394 200H548.759V189.163L545.48 190.367V188.891L550.139 187.142H550.394V200Z" fill="#8794BA"/>
<path d="M509.382 281H491.015V278.439L500.718 267.658C502.156 266.028 503.144 264.706 503.683 263.692C504.235 262.665 504.511 261.607 504.511 260.516C504.511 259.052 504.068 257.852 503.182 256.915C502.297 255.979 501.116 255.51 499.64 255.51C497.869 255.51 496.489 256.017 495.501 257.031C494.525 258.032 494.038 259.431 494.038 261.228H490.476C490.476 258.648 491.304 256.562 492.96 254.971C494.628 253.379 496.855 252.584 499.64 252.584C502.246 252.584 504.306 253.27 505.82 254.644C507.335 256.004 508.092 257.82 508.092 260.092C508.092 262.852 506.333 266.137 502.817 269.949L495.308 278.093H509.382V281ZM526.805 268.679C526.061 269.564 525.169 270.277 524.129 270.816C523.102 271.355 521.973 271.624 520.741 271.624C519.123 271.624 517.711 271.226 516.505 270.431C515.311 269.635 514.387 268.518 513.733 267.081C513.078 265.63 512.751 264.032 512.751 262.287C512.751 260.413 513.104 258.725 513.81 257.223C514.528 255.722 515.542 254.573 516.852 253.777C518.161 252.982 519.688 252.584 521.434 252.584C524.206 252.584 526.388 253.623 527.979 255.703C529.584 257.769 530.386 260.593 530.386 264.174V265.213C530.386 270.668 529.308 274.653 527.152 277.169C524.995 279.672 521.742 280.955 517.391 281.019H516.698V278.016H517.448C520.388 277.965 522.646 277.201 524.225 275.725C525.804 274.236 526.664 271.887 526.805 268.679ZM521.318 268.679C522.512 268.679 523.609 268.313 524.61 267.581C525.624 266.85 526.362 265.945 526.824 264.867V263.442C526.824 261.106 526.317 259.206 525.303 257.743C524.289 256.28 523.006 255.549 521.453 255.549C519.887 255.549 518.629 256.152 517.679 257.358C516.73 258.552 516.255 260.131 516.255 262.094C516.255 264.007 516.71 265.585 517.622 266.83C518.546 268.062 519.778 268.679 521.318 268.679ZM534.987 258.359C534.987 256.678 535.52 255.292 536.585 254.201C537.663 253.11 539.043 252.564 540.724 252.564C542.431 252.564 543.811 253.116 544.864 254.22C545.929 255.311 546.461 256.729 546.461 258.475V259.842C546.461 261.536 545.922 262.922 544.844 264C543.779 265.066 542.419 265.598 540.763 265.598C539.094 265.598 537.715 265.066 536.624 264C535.533 262.922 534.987 261.491 534.987 259.707V258.359ZM537.644 259.842C537.644 260.843 537.926 261.671 538.491 262.325C539.056 262.967 539.813 263.288 540.763 263.288C541.674 263.288 542.406 262.973 542.958 262.345C543.522 261.716 543.805 260.856 543.805 259.765V258.359C543.805 257.358 543.529 256.53 542.977 255.876C542.425 255.221 541.674 254.894 540.724 254.894C539.775 254.894 539.024 255.221 538.472 255.876C537.92 256.53 537.644 257.384 537.644 258.436V259.842ZM548.637 274.127C548.637 272.446 549.17 271.066 550.235 269.988C551.313 268.897 552.693 268.351 554.374 268.351C556.056 268.351 557.435 268.89 558.513 269.968C559.592 271.047 560.131 272.478 560.131 274.262V275.629C560.131 277.31 559.592 278.696 558.513 279.787C557.448 280.865 556.081 281.404 554.413 281.404C552.744 281.404 551.364 280.872 550.273 279.806C549.182 278.728 548.637 277.297 548.637 275.513V274.127ZM551.294 275.629C551.294 276.643 551.576 277.477 552.141 278.131C552.706 278.773 553.463 279.094 554.413 279.094C555.337 279.094 556.075 278.78 556.627 278.151C557.179 277.509 557.455 276.643 557.455 275.552V274.127C557.455 273.113 557.172 272.285 556.607 271.643C556.056 271.002 555.311 270.681 554.374 270.681C553.463 270.681 552.718 271.002 552.141 271.643C551.576 272.272 551.294 273.126 551.294 274.204V275.629ZM541.571 278.882L539.55 277.612L553.238 255.703L555.26 256.973L541.571 278.882Z" fill="#0088F0"/>
<path d="M489.485 307.157C489.485 306.226 489.667 305.388 490.03 304.644C490.399 303.899 490.909 303.325 491.56 302.921C492.216 302.517 492.963 302.314 493.801 302.314C495.096 302.314 496.142 302.763 496.938 303.659C497.741 304.556 498.143 305.748 498.143 307.236V307.351C498.143 308.276 497.964 309.108 497.606 309.847C497.255 310.579 496.748 311.15 496.086 311.561C495.43 311.971 494.674 312.176 493.818 312.176C492.529 312.176 491.483 311.728 490.681 310.831C489.884 309.935 489.485 308.748 489.485 307.271V307.157ZM491.12 307.351C491.12 308.405 491.363 309.252 491.85 309.891C492.342 310.529 492.998 310.849 493.818 310.849C494.645 310.849 495.301 310.526 495.787 309.882C496.273 309.231 496.517 308.323 496.517 307.157C496.517 306.114 496.268 305.271 495.77 304.626C495.277 303.976 494.621 303.65 493.801 303.65C492.998 303.65 492.351 303.97 491.858 304.608C491.366 305.247 491.12 306.161 491.12 307.351ZM508.215 307.351C508.215 308.798 507.884 309.964 507.222 310.849C506.56 311.733 505.663 312.176 504.532 312.176C503.378 312.176 502.47 311.81 501.808 311.077V315.656H500.182V302.49H501.667L501.746 303.545C502.408 302.725 503.328 302.314 504.506 302.314C505.648 302.314 506.551 302.745 507.213 303.606C507.881 304.468 508.215 305.666 508.215 307.201V307.351ZM506.589 307.166C506.589 306.094 506.36 305.247 505.903 304.626C505.446 304.005 504.819 303.694 504.022 303.694C503.038 303.694 502.3 304.131 501.808 305.004V309.548C502.294 310.415 503.038 310.849 504.04 310.849C504.819 310.849 505.438 310.541 505.895 309.926C506.357 309.305 506.589 308.385 506.589 307.166ZM512.495 300.188V302.49H514.271V303.747H512.495V309.645C512.495 310.025 512.574 310.312 512.732 310.506C512.891 310.693 513.16 310.787 513.541 310.787C513.729 310.787 513.986 310.752 514.314 310.682V312C513.887 312.117 513.471 312.176 513.066 312.176C512.34 312.176 511.792 311.956 511.423 311.517C511.054 311.077 510.869 310.453 510.869 309.645V303.747H509.138V302.49H510.869V300.188H512.495ZM517.944 312H516.318V302.49H517.944V312ZM516.187 299.968C516.187 299.704 516.266 299.481 516.424 299.3C516.588 299.118 516.828 299.027 517.145 299.027C517.461 299.027 517.701 299.118 517.865 299.3C518.029 299.481 518.111 299.704 518.111 299.968C518.111 300.231 518.029 300.451 517.865 300.627C517.701 300.803 517.461 300.891 517.145 300.891C516.828 300.891 516.588 300.803 516.424 300.627C516.266 300.451 516.187 300.231 516.187 299.968ZM520.124 307.157C520.124 306.226 520.306 305.388 520.669 304.644C521.038 303.899 521.548 303.325 522.198 302.921C522.854 302.517 523.602 302.314 524.439 302.314C525.734 302.314 526.78 302.763 527.577 303.659C528.38 304.556 528.781 305.748 528.781 307.236V307.351C528.781 308.276 528.603 309.108 528.245 309.847C527.894 310.579 527.387 311.15 526.725 311.561C526.068 311.971 525.312 312.176 524.457 312.176C523.168 312.176 522.122 311.728 521.319 310.831C520.522 309.935 520.124 308.748 520.124 307.271V307.157ZM521.759 307.351C521.759 308.405 522.002 309.252 522.488 309.891C522.98 310.529 523.637 310.849 524.457 310.849C525.283 310.849 525.939 310.526 526.426 309.882C526.912 309.231 527.155 308.323 527.155 307.157C527.155 306.114 526.906 305.271 526.408 304.626C525.916 303.976 525.26 303.65 524.439 303.65C523.637 303.65 522.989 303.97 522.497 304.608C522.005 305.247 521.759 306.161 521.759 307.351ZM532.358 302.49L532.411 303.686C533.138 302.771 534.087 302.314 535.259 302.314C537.269 302.314 538.282 303.448 538.3 305.716V312H536.674V305.707C536.668 305.021 536.51 304.515 536.199 304.187C535.895 303.858 535.417 303.694 534.767 303.694C534.239 303.694 533.776 303.835 533.378 304.116C532.979 304.397 532.669 304.767 532.446 305.224V312H530.82V302.49H532.358ZM553.435 312H545.05V310.831L549.479 305.909C550.136 305.165 550.587 304.562 550.833 304.099C551.085 303.63 551.211 303.146 551.211 302.648C551.211 301.98 551.009 301.433 550.604 301.005C550.2 300.577 549.661 300.363 548.987 300.363C548.179 300.363 547.549 300.595 547.098 301.058C546.652 301.515 546.43 302.153 546.43 302.974H544.804C544.804 301.796 545.182 300.844 545.938 300.117C546.699 299.391 547.716 299.027 548.987 299.027C550.177 299.027 551.117 299.341 551.809 299.968C552.5 300.589 552.846 301.418 552.846 302.455C552.846 303.715 552.043 305.215 550.438 306.955L547.01 310.673H553.435V312Z" fill="#8794BA"/>
<path d="M245.322 81H244.232V73.7754L242.047 74.5781V73.5938L245.152 72.4277H245.322V81ZM253.672 74.6953C253.672 75.1211 253.558 75.5 253.332 75.832C253.109 76.1641 252.806 76.4238 252.424 76.6113C252.869 76.8027 253.22 77.082 253.478 77.4492C253.74 77.8164 253.871 78.2324 253.871 78.6973C253.871 79.4355 253.621 80.0234 253.121 80.4609C252.625 80.8984 251.97 81.1172 251.158 81.1172C250.338 81.1172 249.679 80.8984 249.183 80.4609C248.691 80.0195 248.445 79.4316 248.445 78.6973C248.445 78.2363 248.57 77.8203 248.82 77.4492C249.074 77.0781 249.424 76.7969 249.869 76.6055C249.49 76.418 249.191 76.1582 248.972 75.8262C248.754 75.4941 248.644 75.1172 248.644 74.6953C248.644 73.9766 248.875 73.4062 249.336 72.9844C249.797 72.5625 250.404 72.3516 251.158 72.3516C251.908 72.3516 252.513 72.5625 252.974 72.9844C253.439 73.4062 253.672 73.9766 253.672 74.6953ZM252.787 78.6738C252.787 78.1973 252.635 77.8086 252.33 77.5078C252.029 77.207 251.635 77.0566 251.146 77.0566C250.658 77.0566 250.265 77.2051 249.969 77.502C249.676 77.7988 249.529 78.1895 249.529 78.6738C249.529 79.1582 249.672 79.5391 249.957 79.8164C250.246 80.0938 250.646 80.2324 251.158 80.2324C251.666 80.2324 252.064 80.0938 252.353 79.8164C252.642 79.5352 252.787 79.1543 252.787 78.6738ZM251.158 73.2422C250.732 73.2422 250.386 73.375 250.121 73.6406C249.859 73.9023 249.728 74.2598 249.728 74.7129C249.728 75.1465 249.857 75.498 250.115 75.7676C250.377 76.0332 250.724 76.166 251.158 76.166C251.592 76.166 251.937 76.0332 252.195 75.7676C252.457 75.498 252.588 75.1465 252.588 74.7129C252.588 74.2793 252.453 73.9258 252.183 73.6523C251.914 73.3789 251.572 73.2422 251.158 73.2422ZM257.603 77.8184H254.744V76.9336H257.603V77.8184ZM264.142 81H258.552V80.2207L261.506 76.9395C261.943 76.4434 262.244 76.041 262.408 75.7324C262.576 75.4199 262.66 75.0977 262.66 74.7656C262.66 74.3203 262.525 73.9551 262.256 73.6699C261.986 73.3848 261.627 73.2422 261.177 73.2422C260.638 73.2422 260.219 73.3965 259.918 73.7051C259.621 74.0098 259.472 74.4355 259.472 74.9824H258.388C258.388 74.1973 258.64 73.5625 259.144 73.0781C259.652 72.5938 260.33 72.3516 261.177 72.3516C261.97 72.3516 262.597 72.5605 263.058 72.9785C263.519 73.3926 263.75 73.9453 263.75 74.6367C263.75 75.4766 263.215 76.4766 262.144 77.6367L259.859 80.1152H264.142V81ZM269.867 78.1348H271.051V79.0195H269.867V81H268.777V79.0195H264.892V78.3809L268.713 72.4688H269.867V78.1348ZM266.123 78.1348H268.777V73.9512L268.648 74.1855L266.123 78.1348Z" fill="#8794BA"/>
<path d="M388.35 159H382.76V158.221L385.713 154.939C386.15 154.443 386.451 154.041 386.615 153.732C386.783 153.42 386.867 153.098 386.867 152.766C386.867 152.32 386.732 151.955 386.463 151.67C386.193 151.385 385.834 151.242 385.385 151.242C384.846 151.242 384.426 151.396 384.125 151.705C383.828 152.01 383.68 152.435 383.68 152.982H382.596C382.596 152.197 382.848 151.562 383.352 151.078C383.859 150.594 384.537 150.352 385.385 150.352C386.178 150.352 386.805 150.56 387.266 150.978C387.727 151.393 387.957 151.945 387.957 152.637C387.957 153.477 387.422 154.477 386.352 155.637L384.066 158.115H388.35V159ZM389.996 154.723L390.43 150.469H394.801V151.471H391.35L391.092 153.797C391.51 153.551 391.984 153.428 392.516 153.428C393.293 153.428 393.91 153.685 394.367 154.201C394.824 154.713 395.053 155.406 395.053 156.281C395.053 157.16 394.814 157.853 394.338 158.361C393.865 158.865 393.203 159.117 392.352 159.117C391.598 159.117 390.982 158.908 390.506 158.49C390.029 158.072 389.758 157.494 389.691 156.756H390.717C390.783 157.244 390.957 157.613 391.238 157.863C391.52 158.109 391.891 158.232 392.352 158.232C392.855 158.232 393.25 158.06 393.535 157.717C393.824 157.373 393.969 156.898 393.969 156.293C393.969 155.723 393.812 155.266 393.5 154.922C393.191 154.574 392.779 154.4 392.264 154.4C391.791 154.4 391.42 154.504 391.15 154.711L390.863 154.945L389.996 154.723ZM398.604 155.818H395.744V154.934H398.604V155.818ZM401.129 154.207H401.943C402.455 154.199 402.857 154.064 403.15 153.803C403.443 153.541 403.59 153.187 403.59 152.742C403.59 151.742 403.092 151.242 402.096 151.242C401.627 151.242 401.252 151.377 400.971 151.646C400.693 151.912 400.555 152.266 400.555 152.707H399.471C399.471 152.031 399.717 151.471 400.209 151.025C400.705 150.576 401.334 150.352 402.096 150.352C402.9 150.352 403.531 150.564 403.988 150.99C404.445 151.416 404.674 152.008 404.674 152.766C404.674 153.137 404.553 153.496 404.311 153.844C404.072 154.191 403.746 154.451 403.332 154.623C403.801 154.771 404.162 155.018 404.416 155.361C404.674 155.705 404.803 156.125 404.803 156.621C404.803 157.387 404.553 157.994 404.053 158.443C403.553 158.893 402.902 159.117 402.102 159.117C401.301 159.117 400.648 158.9 400.145 158.467C399.645 158.033 399.395 157.461 399.395 156.75H400.484C400.484 157.199 400.631 157.559 400.924 157.828C401.217 158.098 401.609 158.232 402.102 158.232C402.625 158.232 403.025 158.096 403.303 157.822C403.58 157.549 403.719 157.156 403.719 156.644C403.719 156.148 403.566 155.768 403.262 155.502C402.957 155.236 402.518 155.1 401.943 155.092H401.129V154.207ZM410.867 156.135H412.051V157.019H410.867V159H409.777V157.019H405.893V156.381L409.713 150.469H410.867V156.135ZM407.123 156.135H409.777V151.951L409.648 152.185L407.123 156.135Z" fill="#8794BA"/>
<path d="M384.336 285.207H385.15C385.662 285.199 386.064 285.064 386.357 284.803C386.65 284.541 386.797 284.188 386.797 283.742C386.797 282.742 386.299 282.242 385.303 282.242C384.834 282.242 384.459 282.377 384.178 282.647C383.9 282.912 383.762 283.266 383.762 283.707H382.678C382.678 283.031 382.924 282.471 383.416 282.025C383.912 281.576 384.541 281.352 385.303 281.352C386.107 281.352 386.738 281.564 387.195 281.99C387.652 282.416 387.881 283.008 387.881 283.766C387.881 284.137 387.76 284.496 387.518 284.844C387.279 285.191 386.953 285.451 386.539 285.623C387.008 285.772 387.369 286.018 387.623 286.361C387.881 286.705 388.01 287.125 388.01 287.621C388.01 288.387 387.76 288.994 387.26 289.443C386.76 289.893 386.109 290.117 385.309 290.117C384.508 290.117 383.855 289.9 383.352 289.467C382.852 289.033 382.602 288.461 382.602 287.75H383.691C383.691 288.199 383.838 288.559 384.131 288.828C384.424 289.098 384.816 289.232 385.309 289.232C385.832 289.232 386.232 289.096 386.51 288.822C386.787 288.549 386.926 288.156 386.926 287.645C386.926 287.148 386.773 286.768 386.469 286.502C386.164 286.236 385.725 286.1 385.15 286.092H384.336V285.207ZM389.996 285.723L390.43 281.469H394.801V282.471H391.35L391.092 284.797C391.51 284.551 391.984 284.428 392.516 284.428C393.293 284.428 393.91 284.686 394.367 285.201C394.824 285.713 395.053 286.406 395.053 287.281C395.053 288.16 394.814 288.854 394.338 289.361C393.865 289.865 393.203 290.117 392.352 290.117C391.598 290.117 390.982 289.908 390.506 289.49C390.029 289.072 389.758 288.494 389.691 287.756H390.717C390.783 288.244 390.957 288.613 391.238 288.863C391.52 289.109 391.891 289.232 392.352 289.232C392.855 289.232 393.25 289.061 393.535 288.717C393.824 288.373 393.969 287.898 393.969 287.293C393.969 286.723 393.812 286.266 393.5 285.922C393.191 285.574 392.779 285.4 392.264 285.4C391.791 285.4 391.42 285.504 391.15 285.711L390.863 285.945L389.996 285.723ZM398.604 286.818H395.744V285.934H398.604V286.818ZM404.129 287.135H405.312V288.02H404.129V290H403.039V288.02H399.154V287.381L402.975 281.469H404.129V287.135ZM400.385 287.135H403.039V282.951L402.91 283.186L400.385 287.135ZM410.867 287.135H412.051V288.02H410.867V290H409.777V288.02H405.893V287.381L409.713 281.469H410.867V287.135ZM407.123 287.135H409.777V282.951L409.648 283.186L407.123 287.135Z" fill="#8794BA"/>
<path d="M246.336 372.135H247.519V373.02H246.336V375H245.246V373.02H241.361V372.381L245.181 366.469H246.336V372.135ZM242.592 372.135H245.246V367.951L245.117 368.186L242.592 372.135ZM248.996 370.723L249.429 366.469H253.801V367.471H250.349L250.092 369.797C250.51 369.551 250.984 369.428 251.515 369.428C252.293 369.428 252.91 369.686 253.367 370.201C253.824 370.713 254.052 371.406 254.052 372.281C254.052 373.16 253.814 373.854 253.338 374.361C252.865 374.865 252.203 375.117 251.351 375.117C250.597 375.117 249.982 374.908 249.506 374.49C249.029 374.072 248.758 373.494 248.691 372.756H249.717C249.783 373.244 249.957 373.613 250.238 373.863C250.519 374.11 250.89 374.233 251.351 374.233C251.855 374.233 252.25 374.061 252.535 373.717C252.824 373.373 252.969 372.899 252.969 372.293C252.969 371.723 252.812 371.266 252.5 370.922C252.191 370.574 251.779 370.401 251.263 370.401C250.791 370.401 250.42 370.504 250.15 370.711L249.863 370.945L248.996 370.723ZM257.603 371.819H254.744V370.934H257.603V371.819ZM259.051 370.723L259.484 366.469H263.855V367.471H260.404L260.146 369.797C260.564 369.551 261.039 369.428 261.57 369.428C262.347 369.428 262.965 369.686 263.422 370.201C263.879 370.713 264.107 371.406 264.107 372.281C264.107 373.16 263.869 373.854 263.392 374.361C262.92 374.865 262.258 375.117 261.406 375.117C260.652 375.117 260.037 374.908 259.56 374.49C259.084 374.072 258.812 373.494 258.746 372.756H259.771C259.838 373.244 260.011 373.613 260.293 373.863C260.574 374.11 260.945 374.233 261.406 374.233C261.91 374.233 262.304 374.061 262.59 373.717C262.879 373.373 263.023 372.899 263.023 372.293C263.023 371.723 262.867 371.266 262.554 370.922C262.246 370.574 261.834 370.401 261.318 370.401C260.845 370.401 260.474 370.504 260.205 370.711L259.918 370.945L259.051 370.723ZM269.867 372.135H271.051V373.02H269.867V375H268.777V373.02H264.892V372.381L268.713 366.469H269.867V372.135ZM266.123 372.135H268.777V367.951L268.648 368.186L266.123 372.135Z" fill="#8794BA"/>
<path d="M101.258 285.723L101.691 281.469H106.062V282.471H102.611L102.353 284.797C102.771 284.551 103.246 284.428 103.777 284.428C104.554 284.428 105.172 284.686 105.629 285.201C106.086 285.713 106.314 286.406 106.314 287.281C106.314 288.16 106.076 288.854 105.599 289.361C105.127 289.865 104.465 290.117 103.613 290.117C102.859 290.117 102.244 289.908 101.767 289.49C101.291 289.072 101.019 288.494 100.953 287.756H101.978C102.045 288.244 102.219 288.613 102.5 288.863C102.781 289.109 103.152 289.232 103.613 289.232C104.117 289.232 104.511 289.061 104.797 288.717C105.086 288.373 105.23 287.898 105.23 287.293C105.23 286.723 105.074 286.266 104.761 285.922C104.453 285.574 104.041 285.4 103.525 285.4C103.052 285.4 102.681 285.504 102.412 285.711L102.125 285.945L101.258 285.723ZM107.996 285.723L108.429 281.469H112.801V282.471H109.349L109.092 284.797C109.51 284.551 109.984 284.428 110.515 284.428C111.293 284.428 111.91 284.686 112.367 285.201C112.824 285.713 113.052 286.406 113.052 287.281C113.052 288.16 112.814 288.854 112.338 289.361C111.865 289.865 111.203 290.117 110.351 290.117C109.597 290.117 108.982 289.908 108.506 289.49C108.029 289.072 107.758 288.494 107.691 287.756H108.717C108.783 288.244 108.957 288.613 109.238 288.863C109.519 289.109 109.89 289.232 110.351 289.232C110.855 289.232 111.25 289.061 111.535 288.717C111.824 288.373 111.969 287.898 111.969 287.293C111.969 286.723 111.812 286.266 111.5 285.922C111.191 285.574 110.779 285.4 110.263 285.4C109.791 285.4 109.42 285.504 109.15 285.711L108.863 285.945L107.996 285.723ZM116.603 286.818H113.744V285.934H116.603V286.818ZM121.806 281.463V282.383H121.607C120.763 282.398 120.092 282.648 119.592 283.133C119.092 283.617 118.802 284.299 118.724 285.178C119.174 284.662 119.787 284.404 120.564 284.404C121.306 284.404 121.898 284.666 122.34 285.189C122.785 285.713 123.008 286.389 123.008 287.217C123.008 288.096 122.767 288.799 122.287 289.326C121.81 289.854 121.17 290.117 120.365 290.117C119.549 290.117 118.886 289.805 118.379 289.18C117.871 288.551 117.617 287.742 117.617 286.754V286.338C117.617 284.768 117.951 283.568 118.619 282.74C119.291 281.908 120.289 281.482 121.613 281.463H121.806ZM120.383 285.307C120.011 285.307 119.67 285.418 119.357 285.641C119.045 285.863 118.828 286.143 118.707 286.479V286.877C118.707 287.58 118.865 288.147 119.181 288.576C119.498 289.006 119.892 289.221 120.365 289.221C120.853 289.221 121.236 289.041 121.513 288.682C121.795 288.322 121.935 287.852 121.935 287.27C121.935 286.684 121.793 286.211 121.508 285.852C121.226 285.488 120.851 285.307 120.383 285.307ZM128.867 287.135H130.051V288.02H128.867V290H127.777V288.02H123.892V287.381L127.713 281.469H128.867V287.135ZM125.123 287.135H127.777V282.951L127.648 283.186L125.123 287.135Z" fill="#8794BA"/>
<path d="M110.006 150.463V151.383H109.806C108.963 151.398 108.291 151.648 107.791 152.133C107.291 152.617 107.002 153.299 106.924 154.178C107.373 153.662 107.986 153.404 108.763 153.404C109.506 153.404 110.097 153.666 110.539 154.189C110.984 154.713 111.207 155.389 111.207 156.217C111.207 157.096 110.967 157.799 110.486 158.326C110.01 158.853 109.369 159.117 108.564 159.117C107.748 159.117 107.086 158.805 106.578 158.18C106.07 157.551 105.816 156.742 105.816 155.754V155.338C105.816 153.768 106.15 152.568 106.818 151.74C107.49 150.908 108.488 150.482 109.812 150.463H110.006ZM108.582 154.307C108.211 154.307 107.869 154.418 107.556 154.641C107.244 154.863 107.027 155.143 106.906 155.478V155.877C106.906 156.58 107.064 157.146 107.381 157.576C107.697 158.006 108.092 158.221 108.564 158.221C109.052 158.221 109.435 158.041 109.713 157.682C109.994 157.322 110.135 156.852 110.135 156.269C110.135 155.684 109.992 155.211 109.707 154.852C109.426 154.488 109.051 154.307 108.582 154.307ZM112.988 154.723L113.422 150.469H117.793V151.471H114.342L114.084 153.797C114.502 153.551 114.976 153.428 115.508 153.428C116.285 153.428 116.902 153.685 117.359 154.201C117.816 154.713 118.045 155.406 118.045 156.281C118.045 157.16 117.806 157.853 117.33 158.361C116.857 158.865 116.195 159.117 115.344 159.117C114.59 159.117 113.974 158.908 113.498 158.49C113.021 158.072 112.75 157.494 112.683 156.756H113.709C113.775 157.244 113.949 157.613 114.23 157.863C114.511 158.109 114.883 158.232 115.344 158.232C115.847 158.232 116.242 158.06 116.527 157.717C116.816 157.373 116.961 156.898 116.961 156.293C116.961 155.723 116.804 155.266 116.492 154.922C116.183 154.574 115.771 154.4 115.256 154.4C114.783 154.4 114.412 154.504 114.142 154.711L113.855 154.945L112.988 154.723ZM122.445 154.424H124.824V155.449H122.445V158.144H121.355V155.449H118.976V154.424H121.355V151.934H122.445V154.424Z" fill="#8794BA"/>
<defs>
<filter id="filter0_d" x="0.685303" y="0" width="670" height="480" filterUnits="userSpaceOnUse" color-interpolation-filters="sRGB">
<feFlood flood-opacity="0" result="BackgroundImageFix"/>
<feColorMatrix in="SourceAlpha" type="matrix" values="0 0 0 0 0 0 0 0 0 0 0 0 0 0 0 0 0 0 127 0" result="hardAlpha"/>
<feMorphology radius="15" operator="erode" in="SourceAlpha" result="effect1_dropShadow"/>
<feOffset dy="18"/>
<feGaussianBlur stdDeviation="25"/>
<feColorMatrix type="matrix" values="0 0 0 0 0.0996452 0 0 0 0 0.164326 0 0 0 0 0.350284 0 0 0 0.2 0"/>
<feBlend mode="normal" in2="BackgroundImageFix" result="effect1_dropShadow"/>
<feBlend mode="normal" in="SourceGraphic" in2="effect1_dropShadow" result="shape"/>
</filter>
</defs>
</svg>
