<svg width="671" height="480" viewBox="0 0 671 480" fill="none" xmlns="http://www.w3.org/2000/svg">
<g filter="url(#filter0_d)">
<rect x="35.3706" y="17" width="600" height="410" rx="30" fill="white"/>
</g>
<rect x="134.371" y="89" width="1" height="271" fill="#EEEEF7"/>
<rect x="197.371" y="89" width="1" height="271" fill="#EEEEF7"/>
<rect x="260.371" y="89" width="1" height="271" fill="#EEEEF7"/>
<rect x="323.371" y="89" width="1" height="271" fill="#EEEEF7"/>
<rect x="386.371" y="89" width="1" height="271" fill="#EEEEF7"/>
<rect x="449.371" y="89" width="1" height="271" fill="#EEEEF7"/>
<rect x="512.371" y="89" width="1" height="271" fill="#EEEEF7"/>
<rect x="575.371" y="89" width="1" height="271" fill="#EEEEF7"/>
<path d="M94.3081 109.723L94.7417 105.469H99.1128V106.471H95.6616L95.4038 108.797C95.8218 108.551 96.2964 108.428 96.8276 108.428C97.605 108.428 98.2222 108.686 98.6792 109.201C99.1362 109.713 99.3647 110.406 99.3647 111.281C99.3647 112.16 99.1265 112.854 98.6499 113.361C98.1772 113.865 97.5151 114.117 96.6636 114.117C95.9097 114.117 95.2944 113.908 94.8179 113.49C94.3413 113.072 94.0698 112.494 94.0034 111.756H95.0288C95.0952 112.244 95.269 112.613 95.5503 112.863C95.8315 113.109 96.2026 113.232 96.6636 113.232C97.1675 113.232 97.562 113.061 97.8472 112.717C98.1362 112.373 98.2808 111.898 98.2808 111.293C98.2808 110.723 98.1245 110.266 97.812 109.922C97.5034 109.574 97.0913 109.4 96.5757 109.4C96.103 109.4 95.7319 109.504 95.4624 109.711L95.1753 109.945L94.3081 109.723ZM105.125 111.135H106.308V112.02H105.125V114H104.035V112.02H100.15V111.381L103.97 105.469H105.125V111.135ZM101.38 111.135H104.035V106.951L103.906 107.186L101.38 111.135ZM109.654 110.818H106.794V109.934H109.654V110.818ZM114.857 105.463V106.383H114.658C113.814 106.398 113.142 106.648 112.642 107.133C112.142 107.617 111.853 108.299 111.775 109.178C112.224 108.662 112.837 108.404 113.615 108.404C114.357 108.404 114.949 108.666 115.39 109.189C115.835 109.713 116.058 110.389 116.058 111.217C116.058 112.096 115.818 112.799 115.337 113.326C114.861 113.854 114.22 114.117 113.416 114.117C112.599 114.117 111.937 113.805 111.429 113.18C110.921 112.551 110.667 111.742 110.667 110.754V110.338C110.667 108.768 111.001 107.568 111.669 106.74C112.341 105.908 113.339 105.482 114.664 105.463H114.857ZM113.433 109.307C113.062 109.307 112.72 109.418 112.408 109.641C112.095 109.863 111.878 110.143 111.757 110.479V110.877C111.757 111.58 111.916 112.146 112.232 112.576C112.548 113.006 112.943 113.221 113.416 113.221C113.904 113.221 114.287 113.041 114.564 112.682C114.845 112.322 114.986 111.852 114.986 111.27C114.986 110.684 114.843 110.211 114.558 109.852C114.277 109.488 113.902 109.307 113.433 109.307ZM117.839 109.723L118.273 105.469H122.644V106.471H119.193L118.935 108.797C119.353 108.551 119.828 108.428 120.359 108.428C121.136 108.428 121.753 108.686 122.21 109.201C122.667 109.713 122.896 110.406 122.896 111.281C122.896 112.16 122.658 112.854 122.181 113.361C121.708 113.865 121.046 114.117 120.195 114.117C119.441 114.117 118.826 113.908 118.349 113.49C117.873 113.072 117.601 112.494 117.535 111.756H118.56C118.626 112.244 118.8 112.613 119.082 112.863C119.363 113.109 119.734 113.232 120.195 113.232C120.699 113.232 121.093 113.061 121.378 112.717C121.667 112.373 121.812 111.898 121.812 111.293C121.812 110.723 121.656 110.266 121.343 109.922C121.035 109.574 120.623 109.4 120.107 109.4C119.634 109.4 119.263 109.504 118.994 109.711L118.707 109.945L117.839 109.723Z" fill="#8794BA"/>
<path d="M98.3862 167.135H99.5698V168.02H98.3862V170H97.2964V168.02H93.4116V167.381L97.2319 161.469H98.3862V167.135ZM94.6421 167.135H97.2964V162.951L97.1675 163.186L94.6421 167.135ZM101.046 165.723L101.48 161.469H105.851V162.471H102.4L102.142 164.797C102.56 164.551 103.035 164.428 103.566 164.428C104.343 164.428 104.96 164.686 105.417 165.201C105.875 165.713 106.103 166.406 106.103 167.281C106.103 168.16 105.865 168.854 105.388 169.361C104.916 169.865 104.253 170.117 103.402 170.117C102.648 170.117 102.033 169.908 101.556 169.49C101.08 169.072 100.808 168.494 100.742 167.756H101.767C101.833 168.244 102.007 168.613 102.289 168.863C102.57 169.109 102.941 169.232 103.402 169.232C103.906 169.232 104.3 169.061 104.585 168.717C104.875 168.373 105.019 167.898 105.019 167.293C105.019 166.723 104.863 166.266 104.55 165.922C104.242 165.574 103.83 165.4 103.314 165.4C102.841 165.4 102.47 165.504 102.201 165.711L101.914 165.945L101.046 165.723ZM109.654 166.818H106.794V165.934H109.654V166.818ZM111.101 165.723L111.535 161.469H115.906V162.471H112.455L112.197 164.797C112.615 164.551 113.089 164.428 113.621 164.428C114.398 164.428 115.015 164.686 115.472 165.201C115.929 165.713 116.158 166.406 116.158 167.281C116.158 168.16 115.919 168.854 115.443 169.361C114.97 169.865 114.308 170.117 113.457 170.117C112.703 170.117 112.087 169.908 111.611 169.49C111.134 169.072 110.863 168.494 110.796 167.756H111.822C111.888 168.244 112.062 168.613 112.343 168.863C112.625 169.109 112.996 169.232 113.457 169.232C113.96 169.232 114.355 169.061 114.64 168.717C114.929 168.373 115.074 167.898 115.074 167.293C115.074 166.723 114.917 166.266 114.605 165.922C114.296 165.574 113.884 165.4 113.369 165.4C112.896 165.4 112.525 165.504 112.255 165.711L111.968 165.945L111.101 165.723ZM121.917 167.135H123.101V168.02H121.917V170H120.828V168.02H116.943V167.381L120.763 161.469H121.917V167.135ZM118.173 167.135H120.828V162.951L120.699 163.186L118.173 167.135Z" fill="#8794BA"/>
<path d="M95.3862 221.207H96.2007C96.7124 221.199 97.1147 221.064 97.4077 220.803C97.7007 220.541 97.8472 220.188 97.8472 219.742C97.8472 218.742 97.3491 218.242 96.353 218.242C95.8843 218.242 95.5093 218.377 95.228 218.646C94.9507 218.912 94.812 219.266 94.812 219.707H93.728C93.728 219.031 93.9741 218.471 94.4663 218.025C94.9624 217.576 95.5913 217.352 96.353 217.352C97.1577 217.352 97.7886 217.564 98.2456 217.99C98.7026 218.416 98.9312 219.008 98.9312 219.766C98.9312 220.137 98.8101 220.496 98.5679 220.844C98.3296 221.191 98.0034 221.451 97.5894 221.623C98.0581 221.771 98.4194 222.018 98.6733 222.361C98.9312 222.705 99.0601 223.125 99.0601 223.621C99.0601 224.387 98.8101 224.994 98.3101 225.443C97.8101 225.893 97.1597 226.117 96.3589 226.117C95.5581 226.117 94.9058 225.9 94.4019 225.467C93.9019 225.033 93.6519 224.461 93.6519 223.75H94.7417C94.7417 224.199 94.8882 224.559 95.1812 224.828C95.4741 225.098 95.8667 225.232 96.3589 225.232C96.8823 225.232 97.2827 225.096 97.5601 224.822C97.8374 224.549 97.9761 224.156 97.9761 223.645C97.9761 223.148 97.8237 222.768 97.519 222.502C97.2144 222.236 96.7749 222.1 96.2007 222.092H95.3862V221.207ZM101.046 221.723L101.48 217.469H105.851V218.471H102.4L102.142 220.797C102.56 220.551 103.035 220.428 103.566 220.428C104.343 220.428 104.96 220.686 105.417 221.201C105.875 221.713 106.103 222.406 106.103 223.281C106.103 224.16 105.865 224.854 105.388 225.361C104.916 225.865 104.253 226.117 103.402 226.117C102.648 226.117 102.033 225.908 101.556 225.49C101.08 225.072 100.808 224.494 100.742 223.756H101.767C101.833 224.244 102.007 224.613 102.289 224.863C102.57 225.109 102.941 225.232 103.402 225.232C103.906 225.232 104.3 225.061 104.585 224.717C104.875 224.373 105.019 223.898 105.019 223.293C105.019 222.723 104.863 222.266 104.55 221.922C104.242 221.574 103.83 221.4 103.314 221.4C102.841 221.4 102.47 221.504 102.201 221.711L101.914 221.945L101.046 221.723ZM109.654 222.818H106.794V221.934H109.654V222.818ZM115.179 223.135H116.363V224.02H115.179V226H114.089V224.02H110.205V223.381L114.025 217.469H115.179V223.135ZM111.435 223.135H114.089V218.951L113.96 219.186L111.435 223.135ZM121.917 223.135H123.101V224.02H121.917V226H120.828V224.02H116.943V223.381L120.763 217.469H121.917V223.135ZM118.173 223.135H120.828V218.951L120.699 219.186L118.173 223.135Z" fill="#8794BA"/>
<path d="M99.3999 282H93.8101V281.221L96.7632 277.939C97.2007 277.443 97.5015 277.041 97.6655 276.732C97.8335 276.42 97.9175 276.098 97.9175 275.766C97.9175 275.32 97.7827 274.955 97.5132 274.67C97.2437 274.385 96.8843 274.242 96.4351 274.242C95.896 274.242 95.4761 274.396 95.1753 274.705C94.8784 275.01 94.73 275.436 94.73 275.982H93.646C93.646 275.197 93.8979 274.562 94.4019 274.078C94.9097 273.594 95.5874 273.352 96.4351 273.352C97.228 273.352 97.855 273.561 98.3159 273.979C98.7769 274.393 99.0073 274.945 99.0073 275.637C99.0073 276.477 98.4722 277.477 97.4019 278.637L95.1167 281.115H99.3999V282ZM101.046 277.723L101.48 273.469H105.851V274.471H102.4L102.142 276.797C102.56 276.551 103.035 276.428 103.566 276.428C104.343 276.428 104.96 276.686 105.417 277.201C105.875 277.713 106.103 278.406 106.103 279.281C106.103 280.16 105.865 280.854 105.388 281.361C104.916 281.865 104.253 282.117 103.402 282.117C102.648 282.117 102.033 281.908 101.556 281.49C101.08 281.072 100.808 280.494 100.742 279.756H101.767C101.833 280.244 102.007 280.613 102.289 280.863C102.57 281.109 102.941 281.232 103.402 281.232C103.906 281.232 104.3 281.061 104.585 280.717C104.875 280.373 105.019 279.898 105.019 279.293C105.019 278.723 104.863 278.266 104.55 277.922C104.242 277.574 103.83 277.4 103.314 277.4C102.841 277.4 102.47 277.504 102.201 277.711L101.914 277.945L101.046 277.723ZM109.654 278.818H106.794V277.934H109.654V278.818ZM112.179 277.207H112.994C113.505 277.199 113.908 277.064 114.201 276.803C114.494 276.541 114.64 276.188 114.64 275.742C114.64 274.742 114.142 274.242 113.146 274.242C112.677 274.242 112.302 274.377 112.021 274.646C111.744 274.912 111.605 275.266 111.605 275.707H110.521C110.521 275.031 110.767 274.471 111.259 274.025C111.755 273.576 112.384 273.352 113.146 273.352C113.951 273.352 114.582 273.564 115.039 273.99C115.496 274.416 115.724 275.008 115.724 275.766C115.724 276.137 115.603 276.496 115.361 276.844C115.123 277.191 114.796 277.451 114.382 277.623C114.851 277.771 115.212 278.018 115.466 278.361C115.724 278.705 115.853 279.125 115.853 279.621C115.853 280.387 115.603 280.994 115.103 281.443C114.603 281.893 113.953 282.117 113.152 282.117C112.351 282.117 111.699 281.9 111.195 281.467C110.695 281.033 110.445 280.461 110.445 279.75H111.535C111.535 280.199 111.681 280.559 111.974 280.828C112.267 281.098 112.66 281.232 113.152 281.232C113.675 281.232 114.076 281.096 114.353 280.822C114.63 280.549 114.769 280.156 114.769 279.645C114.769 279.148 114.617 278.768 114.312 278.502C114.007 278.236 113.568 278.1 112.994 278.092H112.179V277.207ZM121.917 279.135H123.101V280.02H121.917V282H120.828V280.02H116.943V279.381L120.763 273.469H121.917V279.135ZM118.173 279.135H120.828V274.951L120.699 275.186L118.173 279.135Z" fill="#8794BA"/>
<path d="M97.3726 338H96.2827V330.775L94.0972 331.578V330.594L97.2026 329.428H97.3726V338ZM105.722 331.695C105.722 332.121 105.609 332.5 105.382 332.832C105.16 333.164 104.857 333.424 104.474 333.611C104.919 333.803 105.271 334.082 105.529 334.449C105.791 334.816 105.921 335.232 105.921 335.697C105.921 336.436 105.671 337.023 105.171 337.461C104.675 337.898 104.021 338.117 103.208 338.117C102.388 338.117 101.73 337.898 101.234 337.461C100.742 337.02 100.496 336.432 100.496 335.697C100.496 335.236 100.621 334.82 100.871 334.449C101.125 334.078 101.474 333.797 101.919 333.605C101.541 333.418 101.242 333.158 101.023 332.826C100.804 332.494 100.695 332.117 100.695 331.695C100.695 330.977 100.925 330.406 101.386 329.984C101.847 329.562 102.455 329.352 103.208 329.352C103.958 329.352 104.564 329.562 105.025 329.984C105.49 330.406 105.722 330.977 105.722 331.695ZM104.837 335.674C104.837 335.197 104.685 334.809 104.38 334.508C104.08 334.207 103.685 334.057 103.197 334.057C102.708 334.057 102.316 334.205 102.019 334.502C101.726 334.799 101.58 335.189 101.58 335.674C101.58 336.158 101.722 336.539 102.007 336.816C102.296 337.094 102.697 337.232 103.208 337.232C103.716 337.232 104.115 337.094 104.404 336.816C104.693 336.535 104.837 336.154 104.837 335.674ZM103.208 330.242C102.783 330.242 102.437 330.375 102.171 330.641C101.91 330.902 101.779 331.26 101.779 331.713C101.779 332.146 101.908 332.498 102.166 332.768C102.427 333.033 102.775 333.166 103.208 333.166C103.642 333.166 103.988 333.033 104.246 332.768C104.507 332.498 104.638 332.146 104.638 331.713C104.638 331.279 104.503 330.926 104.234 330.652C103.964 330.379 103.623 330.242 103.208 330.242ZM109.654 334.818H106.794V333.934H109.654V334.818ZM116.193 338H110.603V337.221L113.556 333.939C113.994 333.443 114.294 333.041 114.458 332.732C114.626 332.42 114.71 332.098 114.71 331.766C114.71 331.32 114.576 330.955 114.306 330.67C114.037 330.385 113.677 330.242 113.228 330.242C112.689 330.242 112.269 330.396 111.968 330.705C111.671 331.01 111.523 331.436 111.523 331.982H110.439C110.439 331.197 110.691 330.562 111.195 330.078C111.703 329.594 112.38 329.352 113.228 329.352C114.021 329.352 114.648 329.561 115.109 329.979C115.57 330.393 115.8 330.945 115.8 331.637C115.8 332.477 115.265 333.477 114.195 334.637L111.91 337.115H116.193V338ZM121.917 335.135H123.101V336.02H121.917V338H120.828V336.02H116.943V335.381L120.763 329.469H121.917V335.135ZM118.173 335.135H120.828V330.951L120.699 331.186L118.173 335.135Z" fill="#8794BA"/>
<path d="M134.371 96H390.871C393.908 96 396.371 98.4624 396.371 101.5C396.371 104.538 393.908 107 390.871 107H134.371V96Z" fill="#EF2A82"/>
<path d="M134.371 153H303.871C306.908 153 309.371 155.462 309.371 158.5C309.371 161.538 306.908 164 303.871 164H134.371V153Z" fill="#EF2A82"/>
<path d="M134.371 210H144.871C147.908 210 150.371 212.462 150.371 215.5C150.371 218.538 147.908 221 144.871 221H134.371V210Z" fill="#EF2A82"/>
<path d="M134.371 267H176.871C179.908 267 182.371 269.462 182.371 272.5C182.371 275.538 179.908 278 176.871 278H134.371V267Z" fill="#EF2A82"/>
<path d="M134.371 324H336.871C339.908 324 342.371 326.462 342.371 329.5C342.371 332.538 339.908 335 336.871 335H134.371V324Z" fill="#EF2A82"/>
<path d="M134.371 110H276.871C279.908 110 282.371 112.462 282.371 115.5C282.371 118.538 279.908 121 276.871 121H134.371V110Z" fill="#0088F0"/>
<path d="M134.371 167H336.871C339.908 167 342.371 169.462 342.371 172.5C342.371 175.538 339.908 178 336.871 178H134.371V167Z" fill="#0088F0"/>
<path d="M134.371 224H176.871C179.908 224 182.371 226.462 182.371 229.5C182.371 232.538 179.908 235 176.871 235H134.371V224Z" fill="#0088F0"/>
<path d="M134.371 281H467.871C470.908 281 473.371 283.462 473.371 286.5C473.371 289.538 470.908 292 467.871 292H134.371V281Z" fill="#0088F0"/>
<path d="M134.371 338H524.871C527.908 338 530.371 340.462 530.371 343.5C530.371 346.538 527.908 349 524.871 349H134.371V338Z" fill="#0088F0"/>
<defs>
<filter id="filter0_d" x="0.370605" y="0" width="670" height="480" filterUnits="userSpaceOnUse" color-interpolation-filters="sRGB">
<feFlood flood-opacity="0" result="BackgroundImageFix"/>
<feColorMatrix in="SourceAlpha" type="matrix" values="0 0 0 0 0 0 0 0 0 0 0 0 0 0 0 0 0 0 127 0" result="hardAlpha"/>
<feMorphology radius="15" operator="erode" in="SourceAlpha" result="effect1_dropShadow"/>
<feOffset dy="18"/>
<feGaussianBlur stdDeviation="25"/>
<feColorMatrix type="matrix" values="0 0 0 0 0.0996452 0 0 0 0 0.164326 0 0 0 0 0.350284 0 0 0 0.2 0"/>
<feBlend mode="normal" in2="BackgroundImageFix" result="effect1_dropShadow"/>
<feBlend mode="normal" in="SourceGraphic" in2="effect1_dropShadow" result="shape"/>
</filter>
</defs>
</svg>
